<svg width="282" height="291" viewBox="0 0 282 291" fill="none" xmlns="http://www.w3.org/2000/svg">
<path d="M239.192 242.129C241.702 240.804 244.631 240.664 247.42 241.152C248.885 241.431 250.489 241.85 251.465 242.965C252.511 244.081 252.651 246.034 251.535 247.01C250.838 247.568 249.861 247.638 248.955 247.638C246.793 247.638 244.352 247.219 242.609 248.544C241.632 249.311 240.935 250.567 239.75 250.915C238.564 251.264 237.309 250.567 236.681 249.521C236.054 248.475 236.054 247.15 236.333 245.964C236.333 245.964 236.681 243.384 239.192 242.129Z" fill="#0053CC"/>
<path d="M233.404 231.041C234.938 233.202 237.937 232.505 239.262 231.18C240.656 229.855 241.214 227.903 241.772 226.09C242.958 221.905 244.213 217.442 243.306 213.188C243.027 211.933 242.539 210.608 241.633 209.702C240.726 208.725 239.331 208.168 238.076 208.516C236.542 208.935 235.635 210.399 234.938 211.794C232.985 215.908 231.939 220.441 231.87 225.043C232.009 227.066 232.218 229.297 233.404 231.041Z" fill="#0053CC"/>
<path d="M229.22 234.179C230.893 232.226 231.172 229.298 230.475 226.857C229.708 224.416 228.034 222.254 226.151 220.581C223.92 218.558 221.27 217.024 218.411 215.978C217.295 215.56 216.109 215.281 214.924 215.351C213.738 215.49 212.553 216.048 211.995 217.094C211.158 218.628 211.995 220.511 212.832 222.115C214.296 224.835 216.04 227.415 217.923 229.855C219.457 231.808 221.2 233.761 223.501 234.667C225.803 235.574 228.243 235.434 229.499 233.83" fill="#0053CC"/>
<path d="M233.334 264.025C233.334 264.025 233.404 263.677 233.474 263.049C233.543 262.352 233.613 261.445 233.752 260.33C233.892 259.214 234.031 257.819 234.38 256.355C234.729 254.89 235.217 253.286 235.845 251.682C236.472 250.078 237.309 248.614 238.216 247.429C239.122 246.243 240.238 245.406 241.214 244.918C242.26 244.43 243.167 244.221 243.794 244.151C244.422 244.081 244.771 244.011 244.771 244.011C244.771 244.011 244.422 244.011 243.794 244.011C243.167 244.081 242.19 244.221 241.144 244.709C240.098 245.197 238.913 246.034 237.937 247.219C236.96 248.405 236.123 249.939 235.426 251.543C234.799 253.217 234.31 254.82 233.962 256.285C233.683 257.819 233.543 259.144 233.404 260.33C233.334 261.515 233.264 262.422 233.264 263.049C233.264 263.677 233.334 264.025 233.334 264.025Z" fill="#263238"/>
<path d="M233.543 261.933C233.543 261.933 233.543 261.794 233.543 261.445C233.543 261.097 233.543 260.678 233.543 260.12C233.543 259.005 233.543 257.331 233.613 255.309C233.683 251.194 234.101 246.801 234.729 240.595C235.356 234.737 236.263 227.972 237.17 223.579C237.379 222.603 237.588 221.696 237.727 220.859C237.937 220.092 238.076 219.395 238.216 218.837C238.355 218.349 238.425 217.861 238.494 217.582C238.564 217.303 238.564 217.163 238.564 217.094C238.564 217.094 238.494 217.233 238.425 217.512C238.355 217.861 238.216 218.279 238.076 218.767C237.937 219.325 237.727 220.023 237.518 220.79C237.309 221.557 237.1 222.463 236.891 223.509C235.984 227.484 235.008 233.133 234.31 239.339C233.613 245.546 233.334 251.194 233.264 255.309C233.264 257.331 233.264 259.005 233.334 260.19C233.334 260.748 233.404 261.166 233.404 261.515C233.474 261.794 233.474 261.933 233.543 261.933Z" fill="#263238"/>
<path d="M233.543 250.985C233.543 250.985 233.543 250.497 233.543 249.59C233.473 248.684 233.404 247.429 233.125 245.825C232.846 244.291 232.497 242.408 231.939 240.385C231.66 239.479 231.102 237.247 229.638 233.97C227.755 229.507 225.175 225.811 222.943 223.579C222.455 222.952 221.828 222.533 221.339 222.115C221.13 221.906 220.851 221.696 220.642 221.557C220.433 221.417 220.224 221.278 220.014 221.138C219.247 220.65 218.899 220.371 218.829 220.371C218.759 220.441 220.503 221.487 222.664 223.788C224.826 226.09 227.337 229.716 229.15 234.179C230.196 236.62 230.893 238.712 231.451 240.525C232.079 242.547 232.427 244.36 232.776 245.894C233.055 247.429 233.194 248.684 233.334 249.59C233.473 250.497 233.543 250.985 233.543 250.985Z" fill="#263238"/>
<path d="M223.013 270.302L224.059 285.295H243.376L244.422 270.302H223.013Z" fill="#263238"/>
<path d="M246.723 264.374H221.13V270.302H246.723V264.374Z" fill="#263238"/>
<path d="M221.13 284.667V286.341H222.316H246.305V284.667H221.13Z" fill="#455A64"/>
<path d="M223.501 289.2L222.316 286.341H245.398L244.004 289.2H223.501Z" fill="#455A64"/>
<path d="M244.073 275.183C244.073 275.183 244.073 275.253 244.003 275.322C243.934 275.392 243.864 275.532 243.725 275.671C243.446 276.02 243.097 276.508 242.609 277.136L242.539 277.205L242.469 277.136C241.772 276.159 240.796 274.834 239.68 273.3H239.819C238.983 274.486 238.076 275.741 237.1 277.136V277.275L237.03 277.136C236.054 275.95 234.938 274.625 233.822 273.3H234.031C233.962 273.37 233.892 273.44 233.822 273.509C232.846 274.765 231.87 275.95 230.963 277.136L230.824 277.275L230.754 277.136C229.777 275.741 228.871 274.486 228.034 273.3H228.174C226.849 274.834 225.733 276.09 224.826 277.136L224.757 277.205L224.687 277.136C224.268 276.368 223.92 275.811 223.641 275.392C223.501 275.183 223.432 275.043 223.362 274.904C223.292 274.765 223.292 274.765 223.292 274.765C223.292 274.765 223.362 274.834 223.432 274.904C223.501 275.043 223.641 275.183 223.711 275.322C223.989 275.741 224.338 276.299 224.826 277.066H224.757C225.593 276.09 226.709 274.765 228.034 273.23L228.104 273.161L228.174 273.3C229.01 274.486 229.917 275.741 230.893 277.136H230.684C231.591 276.02 232.567 274.765 233.543 273.509C233.613 273.44 233.683 273.37 233.752 273.3L233.822 273.161L233.892 273.3C235.008 274.625 236.123 275.95 237.1 277.136H236.89C237.867 275.741 238.773 274.486 239.61 273.3L239.68 273.161L239.75 273.3C240.865 274.834 241.772 276.159 242.469 277.136H242.4C242.888 276.578 243.306 276.09 243.585 275.741C243.725 275.601 243.794 275.462 243.864 275.392C244.073 275.183 244.073 275.183 244.073 275.183Z" fill="#E0E0E0"/>
<path d="M244.701 270.162C244.701 270.232 239.889 270.302 233.892 270.302C227.964 270.302 223.083 270.232 223.083 270.162C223.083 270.093 227.895 270.023 233.892 270.023C239.889 270.093 244.701 270.093 244.701 270.162Z" fill="#455A64"/>
<path d="M245.677 286.48C245.677 286.55 240.447 286.62 233.961 286.62C227.476 286.62 222.246 286.55 222.246 286.48C222.246 286.411 227.476 286.341 233.961 286.341C240.447 286.411 245.677 286.411 245.677 286.48Z" fill="#263238"/>
<path d="M55.6488 238.642C55.579 238.712 55.1606 238.433 54.6725 238.084C54.1843 237.666 53.8356 237.317 53.9054 237.247C53.9751 237.178 54.3935 237.457 54.8817 237.805C55.3698 238.224 55.7185 238.572 55.6488 238.642Z" fill="#263238"/>
<path d="M69.0378 218.698C69.1076 216.815 69.1773 214.932 68.5497 213.119C67.9918 211.375 66.5971 209.702 64.784 209.353C62.6919 208.935 60.5301 210.26 59.4144 212.003C58.2289 213.816 57.8105 215.978 57.5315 218.07C55.1605 232.575 54.254 247.289 54.8816 262.003L63.3893 263.189C67.155 247.847 68.3405 234.458 69.0378 218.698Z" fill="#455A64"/>
<path d="M63.5986 209.283C63.5986 209.283 63.5986 209.353 63.5289 209.423C63.4591 209.493 63.4591 209.632 63.3894 209.841C63.2499 210.19 63.0407 210.678 62.8315 211.306C62.692 211.654 62.5526 212.003 62.4131 212.352C62.2736 212.77 62.1342 213.189 61.9947 213.677C61.8552 214.165 61.7157 214.653 61.5065 215.141C61.3671 215.699 61.2276 216.257 61.0881 216.815C60.4605 219.186 59.9026 222.045 59.4145 225.253C58.9263 228.461 58.6474 232.017 58.4382 235.783C58.0198 243.244 57.95 250.079 57.7408 254.96C57.6711 257.401 57.5316 259.423 57.4619 260.748C57.3922 261.445 57.3922 261.934 57.3224 262.352C57.3224 262.491 57.3224 262.631 57.2527 262.77C57.2527 262.84 57.2527 262.91 57.2527 262.91C57.2527 262.91 57.2527 262.84 57.2527 262.77C57.2527 262.631 57.2527 262.491 57.2527 262.352C57.2527 261.934 57.2527 261.445 57.3224 260.748C57.3922 259.353 57.4619 257.401 57.4619 254.96C57.6014 250.079 57.6014 243.244 58.0895 235.783C58.2987 232.017 58.6474 228.461 59.1355 225.253C59.6237 222.045 60.1816 219.186 60.8789 216.815C61.0184 216.257 61.2276 215.629 61.3671 215.141C61.5763 214.583 61.7157 214.095 61.8552 213.677C61.9947 213.189 62.1342 212.77 62.2736 212.422C62.4131 212.003 62.5526 211.654 62.692 211.376C62.971 210.748 63.1802 210.26 63.3197 209.911C63.3894 209.772 63.4591 209.632 63.4591 209.562C63.5986 209.353 63.5986 209.283 63.5986 209.283Z" fill="#263238"/>
<path d="M64.3659 209.283C64.3659 209.283 64.9237 209.841 65.4119 211.027C65.9698 212.212 66.3184 214.165 66.179 216.536C65.9698 221.278 65.5514 227.763 64.9935 234.946C64.4356 242.129 63.808 248.614 63.3198 253.286C63.0409 255.657 62.8317 257.54 62.6922 258.865C62.6225 259.493 62.5527 259.981 62.483 260.399C62.483 260.539 62.4133 260.678 62.4133 260.818C62.4133 260.888 62.4133 260.957 62.4133 260.957C62.4133 260.957 62.4133 260.888 62.4133 260.818C62.4133 260.678 62.4133 260.609 62.4133 260.399C62.4133 260.051 62.483 259.493 62.5527 258.865C62.6922 257.54 62.8317 255.657 63.1106 253.286C63.529 248.614 64.1567 242.129 64.7145 234.946C65.2724 227.763 65.7606 221.278 66.0395 216.536C66.179 214.165 65.8303 212.282 65.3421 211.097C64.854 209.911 64.3659 209.353 64.3659 209.283Z" fill="#263238"/>
<path d="M70.2931 231.39C70.2931 231.459 69.526 231.25 68.6891 230.971C67.8523 230.692 67.155 230.344 67.155 230.274C67.155 230.204 67.9221 230.413 68.7589 230.692C69.6654 231.041 70.3628 231.32 70.2931 231.39Z" fill="#263238"/>
<path d="M71.3393 222.673C71.3393 222.742 70.7117 223.161 69.8051 223.509C68.8986 223.928 68.2012 224.137 68.1315 224.067C68.1315 223.998 68.7591 223.579 69.6656 223.23C70.5722 222.882 71.2696 222.603 71.3393 222.673Z" fill="#263238"/>
<path d="M70.7812 215.629C70.7812 215.699 70.2233 215.769 69.526 215.699C68.8286 215.629 68.2708 215.56 68.2708 215.49C68.2708 215.42 68.8286 215.351 69.526 215.42C70.2233 215.42 70.7812 215.49 70.7812 215.629Z" fill="#263238"/>
<path d="M61.9944 211.027C61.9247 211.097 61.576 210.609 61.1576 209.981C60.7392 209.353 60.53 208.795 60.5997 208.795C60.6694 208.726 61.0181 209.214 61.4365 209.841C61.7852 210.469 62.0641 211.027 61.9944 211.027Z" fill="#263238"/>
<path d="M59.0659 215.351C59.0659 215.42 58.5081 215.49 57.8804 215.49C57.1831 215.49 56.6949 215.42 56.6949 215.281C56.6949 215.211 57.2528 215.141 57.8804 215.141C58.5081 215.211 59.0659 215.281 59.0659 215.351Z" fill="#263238"/>
<path d="M56.9739 223.928C56.9739 223.998 56.3463 223.858 55.7186 223.579C55.0213 223.3 54.5331 223.021 54.5331 222.952C54.5331 222.882 55.1608 223.021 55.7884 223.3C56.4857 223.579 57.0436 223.858 56.9739 223.928Z" fill="#263238"/>
<path d="M56.7647 231.18C56.7647 231.25 56.2765 231.459 55.6489 231.599C55.0213 231.738 54.5331 231.738 54.5331 231.668C54.5331 231.599 55.0213 231.39 55.6489 231.25C56.2068 231.111 56.7647 231.111 56.7647 231.18Z" fill="#263238"/>
<path d="M55.7884 242.966C55.7884 243.035 55.3002 243.245 54.6029 243.314C53.9752 243.454 53.4174 243.454 53.4174 243.384C53.4174 243.314 53.9055 243.105 54.6029 243.035C55.2305 242.966 55.7884 242.896 55.7884 242.966Z" fill="#263238"/>
<path d="M55.1607 249.521C55.2305 249.59 54.7423 249.869 54.1844 250.218C53.6266 250.497 53.1384 250.706 53.0687 250.636C52.9989 250.567 53.4871 250.288 54.045 249.939C54.6028 249.59 55.091 249.451 55.1607 249.521Z" fill="#263238"/>
<path d="M60.4605 256.913C60.3907 256.982 60.0421 256.424 59.6236 255.727C59.2052 255.03 58.996 254.472 59.0658 254.402C59.1355 254.332 59.4842 254.89 59.9026 255.588C60.2513 256.285 60.5302 256.913 60.4605 256.913Z" fill="#263238"/>
<path d="M61.9946 244.639C62.0643 244.709 61.6459 245.197 61.088 245.755C60.5301 246.313 59.9723 246.731 59.9723 246.662C59.9025 246.592 60.3209 246.104 60.8788 245.546C61.4367 244.988 61.9249 244.569 61.9946 244.639Z" fill="#263238"/>
<path d="M61.6461 238.154C61.5764 238.224 61.2277 237.875 60.8093 237.456C60.3909 237.038 60.112 236.62 60.1817 236.55C60.2514 236.48 60.6001 236.829 61.0185 237.247C61.4369 237.666 61.7159 238.084 61.6461 238.154Z" fill="#263238"/>
<path d="M62.6921 229.925C62.7618 229.995 62.4131 230.483 61.925 231.041C61.4369 231.599 60.9487 232.017 60.9487 231.947C60.879 231.878 61.2276 231.39 61.7158 230.832C62.2039 230.274 62.6224 229.855 62.6921 229.925Z" fill="#263238"/>
<path d="M63.3197 223.928C63.25 223.998 62.7618 223.579 62.2039 223.091C61.646 222.533 61.2974 222.115 61.2974 222.045C61.3671 221.975 61.8552 222.394 62.4131 222.882C62.971 223.37 63.3894 223.858 63.3197 223.928Z" fill="#263238"/>
<path d="M64.5053 215.839C64.575 215.908 64.3658 216.397 63.9474 217.024C63.5987 217.652 63.1803 218.14 63.1106 218.07C63.0408 218 63.25 217.512 63.6684 216.885C64.0171 216.257 64.4355 215.769 64.5053 215.839Z" fill="#263238"/>
<path d="M66.667 208.307C66.7368 208.377 66.5276 208.865 66.1789 209.493C65.8302 210.12 65.4815 210.608 65.4118 210.539C65.3421 210.469 65.5513 209.981 65.8999 209.353C66.2486 208.726 66.5973 208.307 66.667 208.307Z" fill="#263238"/>
<path d="M69.1774 211.724C69.2471 211.794 68.8985 212.073 68.4103 212.282C67.9222 212.491 67.5735 212.631 67.5038 212.561C67.434 212.491 67.7827 212.212 68.2708 212.003C68.759 211.794 69.1077 211.654 69.1774 211.724Z" fill="#263238"/>
<path d="M69.247 238.642C69.247 238.712 68.4799 238.642 67.5734 238.224C66.6668 237.875 66.1089 237.387 66.1089 237.317C66.1787 237.247 66.8063 237.596 67.6431 237.945C68.5497 238.363 69.247 238.572 69.247 238.642Z" fill="#263238"/>
<path d="M68.2011 244.36C68.2011 244.43 67.713 244.639 67.0853 244.709C66.4577 244.848 65.8998 244.848 65.8998 244.779C65.8998 244.709 66.388 244.5 67.0156 244.43C67.6432 244.291 68.2011 244.291 68.2011 244.36Z" fill="#263238"/>
<path d="M66.9459 254.123C66.8762 254.193 66.2486 253.774 65.621 253.007C64.9933 252.24 64.7144 251.543 64.7841 251.473C64.8539 251.403 65.2723 252.101 65.8302 252.798C66.4578 253.565 67.0157 254.123 66.9459 254.123Z" fill="#263238"/>
<path d="M53.2079 258.656C53.1382 258.586 53.4869 258.237 53.975 257.819C54.4632 257.401 54.8816 257.122 54.9513 257.191C55.021 257.261 54.6724 257.61 54.1842 258.028C53.6961 258.447 53.2777 258.726 53.2079 258.656Z" fill="#263238"/>
<path d="M49.303 237.247C48.7451 235.504 47.6991 233.482 45.886 233.482C44.7702 233.482 43.8636 234.249 43.3058 235.225C42.8176 236.201 42.6084 237.317 42.6084 238.363C42.8176 245.476 44.0728 253.705 46.5136 261.097H53.2082C53.1384 252.798 51.8134 245.127 49.303 237.247Z" fill="#455A64"/>
<path d="M37.2388 226.369C36.3323 222.673 33.5429 220.651 30.2653 220.441C27.3364 220.93 26.1509 223.858 25.8022 226.857C25.4536 229.856 26.3601 232.785 27.2667 235.644C30.1956 244.779 33.1244 253.914 36.0533 263.119C38.8427 262.84 41.5624 262.492 44.3518 262.213C41.7716 249.87 40.2374 238.503 37.2388 226.369Z" fill="#455A64"/>
<path d="M45.8857 233.482C45.8857 233.482 45.6068 233.761 45.3278 234.458C45.0489 235.086 44.9094 236.132 45.0489 237.387C45.1883 238.642 45.3278 240.176 45.537 241.85C45.7462 243.524 46.0252 245.337 46.4436 247.289C47.2107 251.125 48.0475 254.542 48.6054 257.052C48.8843 258.307 49.0935 259.353 49.233 260.051C49.3027 260.399 49.3027 260.678 49.3725 260.888C49.3725 261.097 49.4422 261.167 49.3725 261.167C49.3027 261.167 49.3027 261.097 49.3027 260.888C49.233 260.678 49.1633 260.399 49.0935 260.121C48.8843 259.353 48.6751 258.377 48.3962 257.192C47.8383 254.681 46.9317 251.264 46.1646 247.429C45.816 245.476 45.4673 243.663 45.2581 241.989C45.1186 241.153 45.0489 240.316 44.9791 239.618C44.9094 238.851 44.8397 238.154 44.7699 237.526C44.7002 236.271 44.8397 235.155 45.1884 234.528C45.537 233.761 45.8857 233.482 45.8857 233.482Z" fill="#263238"/>
<path d="M30.4047 220.162C30.4047 220.162 29.9863 220.581 29.4284 221.487C28.8706 222.394 28.2429 223.928 28.1732 225.811C28.0337 227.763 28.4522 230.064 29.2192 232.505C29.9166 234.946 30.7534 237.666 31.5902 240.525C33.2639 246.243 34.7283 251.334 35.8441 255.099C36.3322 256.913 36.8204 258.447 37.0993 259.563C37.2388 260.051 37.3085 260.469 37.448 260.748C37.5177 261.027 37.5177 261.166 37.5177 261.166C37.5177 261.166 37.448 261.027 37.3783 260.748C37.3085 260.469 37.1691 260.051 37.0296 259.563C36.6809 258.516 36.2625 256.982 35.7046 255.169C34.5889 251.403 33.0547 246.243 31.381 240.595C30.5442 237.735 29.7771 235.016 29.01 232.575C28.3127 230.134 27.8943 227.763 28.0337 225.811C28.1732 223.858 28.8008 222.324 29.4284 221.417C29.9166 220.581 30.4047 220.162 30.4047 220.162Z" fill="#263238"/>
<path d="M42.6084 261.236C42.6084 261.236 42.5387 261.097 42.3992 260.818C42.2598 260.539 42.1203 260.19 41.9111 259.632C41.4927 258.586 41.0045 257.122 40.5164 255.239C39.9585 253.356 39.4704 251.055 38.9822 248.545C38.4941 246.034 38.0059 243.245 37.448 240.316C36.8901 237.387 36.2625 234.667 35.4954 232.157C34.7284 229.716 33.8915 227.554 33.0547 225.741C32.2179 223.998 31.4508 222.603 30.8232 221.696C30.5442 221.208 30.2653 220.929 30.1258 220.65C29.9864 220.441 29.9166 220.302 29.9166 220.302C29.9166 220.302 30.0561 220.441 30.1956 220.65C30.335 220.86 30.614 221.208 30.9627 221.696C31.5903 222.603 32.4271 223.928 33.2639 225.671C34.1007 227.415 35.0073 229.577 35.7744 232.087C36.5415 234.528 37.1691 237.317 37.7967 240.246C38.3546 243.175 38.8427 245.964 39.3309 248.475C39.819 250.985 40.3072 253.287 40.7953 255.169C41.2835 257.052 41.7716 258.586 42.1203 259.563C42.2598 260.051 42.469 260.469 42.5387 260.748C42.5387 261.097 42.6084 261.236 42.6084 261.236Z" fill="#263238"/>
<path d="M27.4756 234.249C27.4756 234.318 27.0572 234.528 26.4993 234.667C25.9414 234.806 25.4532 234.876 25.4532 234.806C25.4532 234.737 25.8717 234.528 26.4295 234.388C26.9874 234.179 27.4756 234.109 27.4756 234.249Z" fill="#263238"/>
<path d="M26.5692 228.53C26.5692 228.6 25.9416 228.67 25.1745 228.67C24.4074 228.67 23.7798 228.739 23.7798 228.6C23.7798 228.53 24.4074 228.391 25.1745 228.321C25.9416 228.391 26.5692 228.461 26.5692 228.53Z" fill="#263238"/>
<path d="M27.5454 223.37C27.4757 223.44 27.0573 223.161 26.5691 222.742C26.081 222.324 25.7323 221.906 25.7323 221.836C25.802 221.766 26.2204 222.045 26.7086 222.463C27.1967 222.952 27.6151 223.3 27.5454 223.37Z" fill="#263238"/>
<path d="M30.0559 218.628C30.1257 218.628 30.1257 219.046 30.1257 219.535C30.1257 220.023 30.1257 220.441 30.0559 220.441C29.9862 220.441 29.8467 220.023 29.8467 219.535C29.8467 218.977 29.9862 218.558 30.0559 218.628Z" fill="#263238"/>
<path d="M35.2163 220.859C35.286 220.929 35.0768 221.348 34.7979 221.766C34.4492 222.254 34.1703 222.533 34.1006 222.533C34.0308 222.463 34.24 222.045 34.519 221.627C34.8676 221.138 35.1466 220.79 35.2163 220.859Z" fill="#263238"/>
<path d="M38.5636 226.717C38.5636 226.787 38.1452 227.066 37.5873 227.275C37.0295 227.484 36.5413 227.624 36.5413 227.554C36.5413 227.484 36.9597 227.205 37.5176 226.996C38.0755 226.717 38.5636 226.578 38.5636 226.717Z" fill="#263238"/>
<path d="M40.6557 232.714C40.6557 232.784 40.0979 233.133 39.3308 233.272C38.5637 233.481 37.8663 233.412 37.8663 233.342C37.8663 233.272 38.4939 233.133 39.261 232.993C39.9584 232.784 40.586 232.575 40.6557 232.714Z" fill="#263238"/>
<path d="M31.3111 230.971C31.2414 230.971 31.3111 230.553 31.4506 230.065C31.59 229.576 31.7993 229.228 31.869 229.228C31.9387 229.228 31.869 229.646 31.7295 230.134C31.5203 230.622 31.3808 231.041 31.3111 230.971Z" fill="#263238"/>
<path d="M32.5664 238.502C32.4967 238.502 32.6362 237.945 32.9151 237.247C33.194 236.62 33.473 236.062 33.5427 236.131C33.6124 236.131 33.473 236.689 33.194 237.387C32.9848 238.014 32.6362 238.572 32.5664 238.502Z" fill="#263238"/>
<path d="M29.3586 240.594C29.3586 240.664 28.8008 240.525 28.1731 240.316C27.5455 240.106 27.0574 239.967 27.0574 239.827C27.0574 239.758 27.6153 239.827 28.3126 239.967C28.9402 240.246 29.3586 240.525 29.3586 240.594Z" fill="#263238"/>
<path d="M31.2415 246.731C31.3112 246.801 30.9625 247.15 30.4744 247.498C29.9862 247.847 29.5678 248.056 29.4981 247.987C29.4283 247.917 29.777 247.568 30.2652 247.22C30.7533 246.871 31.1717 246.662 31.2415 246.731Z" fill="#263238"/>
<path d="M32.7058 252.868C32.7058 252.938 32.2874 253.147 31.7295 253.286C31.1716 253.426 30.6835 253.496 30.6835 253.356C30.6835 253.286 31.1019 253.077 31.6598 252.938C32.2176 252.798 32.7058 252.729 32.7058 252.868Z" fill="#263238"/>
<path d="M40.7952 237.805C40.865 237.875 40.4466 238.154 39.8887 238.363C39.3308 238.572 38.8427 238.572 38.8427 238.502C38.8427 238.433 39.2611 238.293 39.7492 238.084C40.3071 237.875 40.7255 237.735 40.7952 237.805Z" fill="#263238"/>
<path d="M41.9109 247.289C41.8412 247.359 41.4228 247.219 40.9346 247.01C40.4465 246.801 40.028 246.522 40.0978 246.452C40.1675 246.382 40.5859 246.522 41.0741 246.731C41.5622 247.01 41.9806 247.219 41.9109 247.289Z" fill="#263238"/>
<path d="M44.0032 254.123C44.0032 254.193 43.3756 254.053 42.6782 253.775C41.9809 253.496 41.423 253.217 41.4927 253.147C41.4927 253.077 42.1203 253.217 42.8177 253.496C43.4453 253.775 44.0032 254.053 44.0032 254.123Z" fill="#263238"/>
<path d="M33.0547 259.493C32.9849 259.423 33.5428 259.074 34.1704 258.586C34.7981 258.098 35.2862 257.68 35.3559 257.68C35.4257 257.749 35.0073 258.307 34.3796 258.795C33.6823 259.284 33.0547 259.563 33.0547 259.493Z" fill="#263238"/>
<path d="M38.4243 256.006C38.3545 256.006 38.2151 255.587 38.0058 255.03C37.7966 254.472 37.5874 254.053 37.6572 254.053C37.7269 253.984 38.0756 254.402 38.2848 254.96C38.494 255.518 38.494 256.006 38.4243 256.006Z" fill="#263238"/>
<path d="M36.9597 247.847C36.89 247.917 36.5413 247.777 36.1926 247.498C35.8439 247.219 35.565 246.941 35.565 246.871C35.6347 246.801 35.9834 246.941 36.3321 247.219C36.7505 247.498 37.0294 247.777 36.9597 247.847Z" fill="#263238"/>
<path d="M49.5816 234.946C49.6514 235.016 49.3027 235.364 48.8146 235.713C48.3264 236.062 47.908 236.271 47.908 236.201C47.8383 236.131 48.1869 235.783 48.6751 235.434C49.0935 235.155 49.5119 234.876 49.5816 234.946Z" fill="#263238"/>
<path d="M51.4645 240.176C51.4645 240.246 50.9066 240.385 50.279 240.316C49.6514 240.246 49.0935 240.037 49.1633 239.967C49.1633 239.897 49.7211 239.967 50.3488 240.037C50.9066 240.037 51.4645 240.037 51.4645 240.176Z" fill="#263238"/>
<path d="M43.3056 241.292C43.3056 241.362 42.8175 241.571 42.1899 241.571C41.5622 241.641 41.0741 241.501 41.0741 241.431C41.0741 241.362 41.5622 241.292 42.1899 241.292C42.8175 241.292 43.3056 241.222 43.3056 241.292Z" fill="#263238"/>
<path d="M44.0032 236.41C44.0032 236.48 43.515 236.48 42.9571 236.271C42.3992 235.992 42.1203 235.643 42.19 235.573C42.2598 235.504 42.6084 235.783 43.0966 235.992C43.5847 236.201 44.0032 236.34 44.0032 236.41Z" fill="#263238"/>
<path d="M52.162 245.685C52.0922 245.755 51.6041 245.546 51.0462 245.127C50.4883 244.779 50.0002 244.43 50.0699 244.36C50.1396 244.291 50.6278 244.5 51.1857 244.918C51.7435 245.267 52.162 245.616 52.162 245.685Z" fill="#263238"/>
<path d="M72.0367 260.19H28.5916V267.861H72.0367V260.19Z" fill="#0053CC"/>
<path d="M31.7994 266.396L37.0993 289.409H62.971L68.759 266.396H31.7994Z" fill="#0053CC"/>
<path d="M71.9669 267.931C71.9669 268 62.204 268.07 50.0701 268.07C38.0059 268.07 28.1732 268 28.1732 267.931C28.1732 267.861 37.9362 267.791 50.0701 267.791C62.204 267.791 71.9669 267.861 71.9669 267.931Z" fill="#263238"/>
<path d="M47.8383 241.501C47.7686 241.571 47.4896 241.222 47.141 240.734C46.862 240.246 46.6528 239.827 46.7226 239.827C46.7923 239.758 47.0712 240.106 47.4199 240.595C47.6989 241.013 47.9081 241.431 47.8383 241.501Z" fill="#263238"/>
<path d="M47.8383 247.638C47.7685 247.638 47.8383 247.08 48.0475 246.452C48.2567 245.825 48.4659 245.337 48.5356 245.406C48.6054 245.406 48.5356 245.964 48.3264 246.592C48.187 247.219 47.908 247.708 47.8383 247.638Z" fill="#263238"/>
<path d="M50.0002 254.193C49.9305 254.263 49.5818 253.705 49.3029 253.007C48.9542 252.31 48.745 251.752 48.8844 251.682C48.9542 251.613 49.3029 252.171 49.5818 252.868C49.8607 253.565 50.0699 254.123 50.0002 254.193Z" fill="#263238"/>
<path d="M45.3976 259.423C45.3279 259.353 45.6068 258.935 45.9555 258.516C46.3042 258.098 46.7226 257.749 46.7923 257.819C46.862 257.889 46.5831 258.307 46.2344 258.726C45.816 259.144 45.4673 259.423 45.3976 259.423Z" fill="#263238"/>
<path d="M44.4215 249.869C44.4215 249.939 44.0031 249.939 43.515 249.869C43.0268 249.8 42.6084 249.66 42.6084 249.59C42.6084 249.521 43.0268 249.521 43.515 249.59C44.0728 249.66 44.4215 249.8 44.4215 249.869Z" fill="#263238"/>
<path d="M195.398 207.331H92.4689V289.409H195.398V207.331Z" fill="#E0E0E0"/>
<path opacity="0.3" d="M100 207.54C112.134 211.864 125.523 212.77 138.494 213.049C141.214 213.119 143.933 213.119 146.514 213.746C149.094 214.444 151.674 215.908 152.999 218.209C154.463 220.72 154.324 223.928 153.487 226.787C152.65 229.576 151.256 232.226 150.21 234.946C148.396 239.758 147.839 245.058 148.606 250.148C148.954 252.31 149.512 254.472 150.767 256.285C152.023 258.098 154.045 259.423 156.207 259.493C160.112 259.562 162.832 255.727 164.715 252.31C172.664 238.363 181.311 222.533 186.402 207.331L100 207.54Z" fill="black"/>
<path d="M127.546 288.99C127.476 288.99 127.337 270.79 127.337 248.335C127.337 225.88 127.406 207.679 127.546 207.679C127.616 207.679 127.755 225.88 127.755 248.335C127.755 270.79 127.685 288.99 127.546 288.99Z" fill="#455A64"/>
<path d="M169.736 146.661C169.457 144.639 163.32 137.875 163.32 137.875C163.32 137.875 160.252 125.601 159.345 121.975C159.136 121.069 158.648 120.023 158.02 118.976C155.858 115.35 152.72 112.421 149.094 110.329L140.656 105.587L138.634 101.055L118.271 90.5942L112.762 100.357C112.762 100.357 99.3728 104.611 97.5597 107.679C95.8163 110.748 98.4662 151.473 98.4662 151.473C98.4662 151.473 92.8874 174.974 91.7019 179.855C90.5164 184.737 92.0506 190.525 92.0506 190.525L102.023 177.972C105.091 174.067 111.925 172.324 116.807 172.394L158.578 172.603L156.904 160.887L190.656 167.442C190.656 167.442 196.444 156.076 196.932 155.866C197.421 155.657 169.736 146.661 169.736 146.661Z" fill="#0053CC"/>
<path d="M117.364 104.192C117.085 103.913 119.735 112.839 123.082 121.975C124.896 126.926 125.802 132.086 125.802 137.386V157.47V170.441L145.816 169.046L142.818 147.289C142.818 147.289 140.377 133.272 139.679 127.902C139.052 123.021 136.89 109.771 136.89 109.771C136.89 109.771 125.802 112.77 117.364 104.192Z" fill="white"/>
<path d="M161.855 154.89C161.855 154.89 161.855 154.681 161.855 154.402C161.855 154.053 161.995 153.635 162.134 153.077C162.413 151.961 163.18 150.427 164.436 149.172C165.691 147.916 167.225 147.219 168.341 146.87C168.899 146.731 169.387 146.661 169.666 146.591C170.014 146.591 170.154 146.591 170.154 146.591C170.154 146.661 169.457 146.731 168.411 147.079C167.365 147.428 165.9 148.195 164.715 149.381C163.529 150.566 162.762 152.031 162.413 153.077C161.995 154.192 161.925 154.89 161.855 154.89Z" fill="#263238"/>
<path d="M162.901 146.94C162.832 146.87 164.156 146.173 165.97 146.033C167.783 145.894 169.177 146.312 169.108 146.382C169.108 146.522 167.713 146.243 165.97 146.382C164.226 146.591 162.901 147.079 162.901 146.94Z" fill="#263238"/>
<path opacity="0.3" d="M96.4441 165.001L94.7007 166.954C96.5835 169.116 98.9545 170.929 101.744 171.626C104.533 172.324 107.392 172.393 110.252 172.393C111.437 172.393 112.553 172.393 113.669 172.045C114.784 171.696 115.83 171.068 117.016 170.999C117.783 170.929 118.55 171.138 119.387 171.347C120.154 171.487 120.991 171.626 121.758 171.417C122.525 171.208 123.153 170.511 123.153 169.674C114.436 167.163 105.44 165.559 96.4441 165.001Z" fill="black"/>
<path d="M153.627 167.512L148.745 162.282L138.634 159.702C138.634 159.702 129.359 162.491 129.15 162.491C128.94 162.491 121.06 160.329 121.06 160.329L118.341 170.371L132.497 171.347L148.606 170.72C148.606 170.72 149.442 169.953 148.954 169.395C148.466 168.837 151.674 170.301 152.023 170.301C152.371 170.301 153.138 170.58 153.627 170.022C153.906 169.674 154.394 168.349 153.627 167.512Z" fill="#FFBE9D"/>
<path d="M148.885 169.395C148.885 169.465 148.257 169.255 147.281 168.907C146.304 168.628 144.979 168.209 143.445 167.791C141.911 167.372 140.516 167.094 139.54 166.884C138.564 166.675 137.936 166.536 137.936 166.536C137.936 166.466 138.564 166.536 139.61 166.675C140.656 166.815 142.051 167.094 143.585 167.442C145.119 167.861 146.444 168.279 147.42 168.697C148.327 169.116 148.885 169.395 148.885 169.395Z" fill="#EB996E"/>
<path d="M153.627 167.512C153.627 167.582 152.79 167.233 151.395 166.815C150.001 166.327 148.118 165.769 145.956 165.211C143.794 164.583 141.911 163.956 140.447 163.886C138.982 163.746 138.146 164.025 138.146 163.956C138.146 163.956 138.355 163.816 138.773 163.746C139.192 163.677 139.75 163.607 140.517 163.607C141.981 163.607 143.934 164.235 146.095 164.862C148.257 165.49 150.14 166.048 151.535 166.606C152.232 166.884 152.79 167.094 153.139 167.303C153.418 167.373 153.627 167.512 153.627 167.512Z" fill="#EB996E"/>
<path d="M97.5595 107.679C97.5595 107.679 90.2373 112.77 88.4939 120.023C86.7506 127.345 79.0099 157.122 80.6139 161.585C82.2178 166.048 112.832 170.441 112.832 170.441L116.458 155.099L100.907 150.846C100.907 150.846 101.116 136.62 101.325 130.762C101.534 124.904 97.5595 107.679 97.5595 107.679Z" fill="#0053CC"/>
<path d="M116.318 157.4L121.27 158.656L118.271 170.232L113.32 169.395L116.318 157.4Z" fill="white"/>
<path d="M80.5444 160.05C80.5444 160.05 80.5444 160.329 80.6141 160.748C80.6838 161.236 81.0325 161.863 81.6601 162.491C82.9851 163.746 85.5653 164.792 88.7731 165.35C90.2376 165.838 91.9112 166.187 93.7243 166.605C95.5374 167.024 97.4203 167.442 99.5123 167.861C103.557 168.698 108.09 169.604 112.901 170.441L112.692 170.58C113.041 169.186 113.39 167.652 113.808 166.117C114.645 162.631 115.482 159.214 116.319 155.936L116.458 156.145C111.298 154.681 106.625 153.356 102.65 152.17C100.558 151.333 98.4663 150.985 96.5835 151.124C94.7703 151.194 93.2362 151.682 92.0507 152.17C90.8652 152.658 90.0283 153.216 89.4007 153.635C89.1218 153.844 88.9126 153.983 88.7731 154.123C88.6336 154.193 88.5639 154.262 88.5639 154.262C88.5639 154.262 88.6336 154.193 88.7731 154.053C88.9126 153.914 89.1218 153.774 89.4007 153.565C89.9586 153.147 90.7954 152.589 91.9809 152.031C93.1664 151.473 94.7006 150.985 96.5835 150.915C98.4663 150.776 100.558 151.055 102.72 151.961C106.695 153.077 111.437 154.402 116.597 155.866L116.737 155.936L116.667 156.075C115.9 159.283 115.063 162.7 114.226 166.257C113.878 167.791 113.459 169.255 113.111 170.72L113.041 170.859H112.901C108.09 169.953 103.627 169.046 99.5123 168.209C97.49 167.791 95.5374 167.373 93.7243 166.954C91.9112 166.536 90.2376 166.117 88.7731 165.629C85.4956 165.002 82.9851 163.956 81.5904 162.631C80.893 162.003 80.6141 161.306 80.5444 160.817C80.4746 160.26 80.5444 160.05 80.5444 160.05Z" fill="#263238"/>
<path d="M101.744 151.891C101.674 151.961 101.186 151.473 100.279 150.845C99.3728 150.218 97.9781 149.451 96.3045 149.032C94.6308 148.544 93.0967 148.404 91.9809 148.474C90.8651 148.474 90.1678 148.614 90.1678 148.544C90.1678 148.474 90.8651 148.265 91.9809 148.195C93.0967 148.126 94.7006 148.195 96.444 148.683C98.1176 149.172 99.5123 150.008 100.419 150.636C101.325 151.333 101.814 151.891 101.744 151.891Z" fill="#263238"/>
<path d="M103.836 126.926C103.836 126.926 103.836 127.275 103.836 127.833C103.836 128.46 103.766 129.297 103.696 130.343C103.557 132.505 103.208 135.434 102.65 138.642C102.092 141.849 101.395 144.778 100.698 146.801C100.558 147.289 100.349 147.777 100.21 148.195C100.07 148.544 99.8609 148.893 99.7912 149.172C99.5123 149.729 99.303 150.008 99.303 150.008C99.303 150.008 99.3728 149.66 99.6517 149.172C99.7912 148.893 99.8609 148.544 100.07 148.126C100.21 147.707 100.349 147.289 100.489 146.731C101.116 144.709 101.744 141.78 102.302 138.572C102.86 135.364 103.208 132.435 103.487 130.273C103.627 129.297 103.696 128.39 103.766 127.763C103.766 127.275 103.766 126.926 103.836 126.926Z" fill="#263238"/>
<path d="M121.549 119.046C121.549 119.046 121.479 118.837 121.339 118.558C121.2 118.209 120.851 117.791 120.293 117.442C119.735 117.093 118.899 116.815 117.992 117.093C117.155 117.372 116.318 118.209 116.109 119.255L116.039 119.743L115.83 119.255C115.063 117.651 114.366 115.838 113.668 113.886C112.483 110.329 111.995 106.842 112.065 104.402C112.065 103.774 112.134 103.216 112.204 102.728C112.274 102.24 112.343 101.821 112.413 101.473C112.622 100.775 112.692 100.427 112.692 100.427C112.762 100.427 112.274 101.891 112.274 104.402C112.204 106.842 112.762 110.259 113.947 113.816C114.575 115.769 115.342 117.582 116.039 119.186L115.761 119.255C116.039 118 116.946 117.163 117.922 116.884C118.899 116.605 119.805 116.884 120.363 117.303C120.921 117.721 121.27 118.209 121.409 118.558C121.479 118.767 121.549 118.907 121.549 118.976C121.549 118.976 121.618 119.046 121.549 119.046Z" fill="#263238"/>
<path d="M138.564 120.58C138.564 120.58 138.494 120.301 138.424 119.743C138.355 119.185 138.145 118.418 138.285 117.372C138.424 116.396 138.912 115.211 139.958 114.304C140.516 113.886 141.214 113.607 141.981 113.607C142.748 113.607 143.585 113.886 144.143 114.583L143.864 114.792C143.654 114.234 143.445 113.676 143.236 113.118C141.911 109.841 140.795 106.842 139.958 104.681C139.54 103.634 139.261 102.798 138.982 102.1C138.773 101.473 138.633 101.124 138.703 101.124C138.703 101.124 138.912 101.473 139.122 102.031C139.401 102.658 139.749 103.565 140.168 104.541C141.074 106.703 142.26 109.632 143.515 112.909C143.724 113.467 143.933 114.025 144.143 114.583L144.561 115.629L143.794 114.722C143.306 114.165 142.608 113.886 141.911 113.886C141.214 113.886 140.586 114.095 140.098 114.513C139.122 115.28 138.633 116.466 138.424 117.372C138.285 118.349 138.424 119.116 138.494 119.674C138.633 120.301 138.633 120.58 138.564 120.58Z" fill="#263238"/>
<path d="M151.535 122.323C151.604 122.323 153.208 132.923 155.021 146.033C156.834 159.144 158.299 169.743 158.159 169.743C158.09 169.743 156.486 159.144 154.673 146.033C152.86 132.923 151.395 122.323 151.535 122.323Z" fill="#263238"/>
<path opacity="0.3" d="M113.878 113.955C113.947 116.675 114.575 119.325 115.621 121.835C116.388 120.929 117.225 119.883 118.41 119.604C119.875 119.255 121.339 120.162 122.316 121.208C122.106 120.162 121.758 119.046 121.06 118.209C120.363 117.372 119.387 116.744 118.271 116.744C117.225 116.744 116.109 117.581 115.97 118.627L113.947 113.955" fill="black"/>
<path d="M102.092 121.626C102.023 121.626 102.023 120.929 101.813 119.743C101.604 118.627 101.116 117.093 100.14 115.629C99.6516 114.932 99.0937 114.234 98.5358 113.746C97.9779 113.258 97.42 112.77 96.9319 112.491C95.9556 111.863 95.2582 111.654 95.2582 111.584C95.2582 111.584 95.4674 111.584 95.7464 111.724C95.8859 111.793 96.0951 111.863 96.3043 111.933C96.5135 112.003 96.7924 112.142 97.0016 112.282C97.5595 112.561 98.1174 112.979 98.6753 113.467C99.2331 114.025 99.8608 114.653 100.349 115.42C101.395 116.954 101.883 118.558 102.023 119.743C102.092 120.301 102.092 120.789 102.092 121.138C102.162 121.417 102.162 121.626 102.092 121.626Z" fill="#263238"/>
<path d="M142.609 71.8352C141.772 64.0946 135.147 58.3065 127.337 58.5157H126.57C118.271 59.2131 114.157 66.6748 115.133 74.9733L117.434 104.192L118.411 105.378C122.874 110.887 130.475 112.7 136.96 109.771L136.333 100.357C136.333 100.357 144.352 98.8924 144.213 90.8729C144.073 87.0374 143.376 79.0876 142.609 71.8352Z" fill="#FFBE9D"/>
<path d="M136.332 100.357C136.332 100.357 131.242 100.775 125.733 97.5676C125.733 97.5676 128.382 103.286 136.332 102.379V100.357Z" fill="#EB996E"/>
<path d="M140.028 78.46C140.098 79.0876 139.61 79.5758 138.982 79.6455C138.355 79.7152 137.797 79.2271 137.797 78.6692C137.727 78.0416 138.215 77.5534 138.843 77.4837C139.47 77.414 140.028 77.9021 140.028 78.46Z" fill="#263238"/>
<path d="M128.453 79.0876C128.522 79.7153 128.034 80.2034 127.406 80.2731C126.779 80.3429 126.221 79.8547 126.221 79.2968C126.151 78.6692 126.639 78.1811 127.267 78.1113C127.895 78.0416 128.453 78.46 128.453 79.0876Z" fill="#263238"/>
<path d="M133.125 85.364C133.125 85.2942 133.892 85.1547 135.147 84.9455C135.426 84.8758 135.775 84.8061 135.775 84.5969C135.844 84.3877 135.705 84.039 135.565 83.6903C135.217 82.9232 134.938 82.1561 134.589 81.3193C133.194 77.972 132.218 75.1826 132.358 75.1129C132.497 75.0431 133.752 77.7628 135.077 81.1101C135.426 81.9469 135.705 82.714 136.054 83.4811C136.193 83.8298 136.402 84.2482 136.263 84.7363C136.193 84.9455 135.984 85.1548 135.775 85.2245C135.565 85.2942 135.426 85.2942 135.217 85.2942C133.892 85.4337 133.125 85.4337 133.125 85.364Z" fill="#263238"/>
<path d="M128.313 71.0683C128.173 71.4169 126.988 71.2077 125.523 71.2775C124.059 71.3472 122.873 71.6959 122.734 71.4169C122.664 71.2775 122.873 70.9985 123.362 70.6498C123.85 70.3709 124.617 70.092 125.454 70.0222C126.291 69.9525 127.127 70.1617 127.615 70.3709C128.104 70.6498 128.383 70.9288 128.313 71.0683Z" fill="#263238"/>
<path d="M140.517 71.347C140.238 71.626 139.192 71.347 137.936 71.347C136.681 71.2773 135.565 71.5562 135.356 71.2773C135.217 71.1378 135.426 70.8589 135.914 70.58C136.402 70.301 137.169 70.0918 138.006 70.0918C138.913 70.0918 139.61 70.3707 140.098 70.6497C140.517 70.9286 140.656 71.2076 140.517 71.347Z" fill="#263238"/>
<path d="M144.91 64.7921C144.77 64.0947 144.073 63.4671 143.306 63.5369C143.724 63.3974 144.073 63.2579 144.422 62.979C144.701 62.7 144.91 62.2816 144.77 61.8632C144.561 61.2356 143.794 61.0961 143.166 60.9567C142.33 60.7474 141.632 60.2593 141.074 59.5619C140.307 58.5857 140.028 57.3304 139.331 56.2844C138.494 54.9594 137.03 54.0529 135.426 53.8437C133.822 53.7042 132.218 54.2621 131.102 55.3778C129.847 54.1226 128.034 53.495 126.29 53.7739C124.547 54.0529 122.943 55.1686 122.176 56.7725C120.014 55.866 117.434 56.2844 115.621 57.6791C113.808 59.1435 112.901 61.5843 113.32 63.8158L118.341 66.8841C118.41 65.35 120.154 64.0947 121.618 64.5131C123.152 64.9316 124.059 66.6749 125.663 66.8144C126.848 66.8841 127.894 65.9776 129.08 65.6289C130.544 65.2105 132.009 65.8381 133.334 66.5355C134.659 67.2328 135.844 68.1394 137.309 68.5578C138.982 68.9762 140.795 68.6275 142.399 67.9302C143.097 67.6512 143.794 67.3026 144.282 66.7447C144.77 66.2565 145.049 65.4894 144.91 64.7921Z" fill="#263238"/>
<path d="M119.178 64.5131L142.051 64.3736C141.284 62.8394 139.959 61.5842 138.564 60.6079C135.565 58.4461 131.869 57.1211 128.104 57.1909C124.408 57.2606 116.946 62.0026 114.296 64.6525C112.204 66.7446 112.274 68.5577 112.274 68.5577C111.995 71.5563 113.738 74.8339 114.505 77.7627C114.854 79.2272 115.691 83.76 115.691 83.76C116.946 83.6902 117.364 82.7139 117.155 81.4587L116.807 76.5772C116.807 76.5772 120.991 73.4392 118.829 67.9301C118.48 67.3722 117.713 65.3499 119.178 64.5131Z" fill="#263238"/>
<path d="M116.388 76.159C115.203 72.1143 114.157 67.7907 115.412 63.7461C115.203 63.7461 114.994 63.7461 114.715 63.7461L114.436 63.9553C113.181 63.5369 111.646 64.025 110.81 65.0711C110.042 66.1868 110.042 67.7907 110.81 68.8368C109.485 68.767 108.16 69.8828 108.02 71.2775C107.95 72.1841 108.369 73.0906 108.787 73.9274C109.206 74.7643 109.624 75.6011 109.624 76.5774C109.624 77.4839 108.996 78.53 108.09 78.6694C108.508 79.6457 109.694 80.2036 110.67 79.9247C110.321 80.6917 109.763 81.3891 109.066 81.8772C110.531 82.9233 112.623 82.5746 114.227 81.7378C115.203 81.2496 116.109 80.622 116.528 79.576C117.086 78.53 116.737 77.3445 116.388 76.159Z" fill="#263238"/>
<path d="M116.039 80.901C115.9 80.8313 110.461 79.4366 110.809 84.8759C111.158 90.385 116.528 88.9206 116.528 88.7811C116.528 88.6416 116.039 80.901 116.039 80.901Z" fill="#FFBE9D"/>
<path d="M115.272 86.7586C115.272 86.7586 115.203 86.8284 114.993 86.8981C114.854 86.9678 114.575 87.0376 114.296 86.9678C113.738 86.7586 113.18 85.9218 113.11 84.9455C113.041 84.4574 113.11 83.9692 113.32 83.5508C113.459 83.1324 113.738 82.8535 114.017 82.7837C114.296 82.714 114.505 82.8535 114.575 82.9929C114.645 83.1324 114.645 83.2719 114.645 83.2719C114.645 83.2719 114.784 83.2021 114.714 82.9232C114.714 82.7837 114.645 82.714 114.505 82.5745C114.366 82.5048 114.157 82.4351 113.947 82.4351C113.529 82.5048 113.18 82.9232 112.971 83.3416C112.762 83.76 112.692 84.3179 112.762 84.8758C112.832 85.9916 113.459 86.9678 114.296 87.177C114.714 87.2468 114.993 87.1073 115.133 86.9678C115.272 86.8981 115.272 86.7586 115.272 86.7586Z" fill="#EB996E"/>
<path d="M110.322 76.368C110.322 76.368 110.182 76.1588 110.252 75.7404C110.322 75.322 110.601 74.6944 111.298 74.3457C111.995 73.9273 112.902 73.8576 113.808 73.7181C114.715 73.6484 115.761 73.3694 116.319 72.4629C116.877 71.5563 116.877 70.5103 116.737 69.6037C116.598 68.6972 116.389 67.8603 116.249 67.163C115.97 65.6985 116.249 64.792 116.319 64.792C116.389 64.792 116.249 65.6986 116.598 67.0933C116.737 67.7906 117.016 68.6274 117.156 69.6037C117.295 70.58 117.295 71.6958 116.667 72.7418C116.389 73.2299 115.9 73.6484 115.342 73.8576C114.854 74.0668 114.296 74.1365 113.808 74.2062C112.832 74.276 111.995 74.3457 111.368 74.6944C110.74 75.0431 110.461 75.5312 110.391 75.8799C110.322 76.1588 110.391 76.368 110.322 76.368Z" fill="#455A64"/>
<path d="M109.066 73.997C109.066 73.997 108.927 73.8575 108.927 73.5088C108.857 73.1602 108.927 72.672 109.206 72.1141C109.345 71.8352 109.554 71.5562 109.833 71.347C110.112 71.1378 110.53 70.9286 110.879 70.8589C111.228 70.7194 111.646 70.6497 111.925 70.4405C112.204 70.2313 112.344 69.8826 112.344 69.4642C112.344 69.0458 112.274 68.6274 112.274 68.1392C112.274 67.7208 112.344 67.3024 112.413 66.884C112.553 66.1169 112.901 65.4195 113.18 64.9314C113.529 64.3735 114.017 64.1643 114.366 64.1643C114.715 64.1643 114.854 64.3038 114.854 64.3735C114.854 64.3735 114.645 64.3038 114.366 64.3735C114.087 64.4432 113.669 64.6525 113.39 65.1406C113.111 65.6287 112.901 66.2564 112.762 67.0234C112.692 67.3721 112.623 67.7905 112.623 68.2089C112.623 68.6274 112.692 69.0458 112.692 69.5339C112.692 70.0221 112.553 70.5102 112.134 70.8589C111.716 71.1378 111.298 71.2076 110.949 71.347C110.182 71.4865 109.694 71.9049 109.415 72.3931C108.787 73.2299 109.136 73.997 109.066 73.997Z" fill="#455A64"/>
<path d="M141.075 59.5619C141.075 59.5619 140.656 59.8409 139.959 59.4922C139.61 59.3527 139.261 59.0041 138.913 58.5856C138.564 58.1672 138.215 57.7488 137.657 57.4699C136.611 56.8423 134.868 56.7028 133.543 57.7488C132.846 58.237 132.288 58.9343 131.451 59.4922C131.033 59.7711 130.614 60.0501 130.056 60.1198C129.568 60.1896 129.01 60.1198 128.522 59.9803C127.546 59.6317 126.779 59.0041 125.872 58.7251C125.035 58.3764 124.129 58.237 123.292 58.237C121.618 58.237 120.154 58.8646 119.178 59.6317C118.132 60.3988 117.574 61.3053 117.225 61.9329C116.876 62.5605 116.737 62.979 116.737 62.9092C116.737 62.9092 116.737 62.8395 116.807 62.6303C116.876 62.4211 116.946 62.1421 117.086 61.8632C117.365 61.1658 117.992 60.2593 119.038 59.4225C120.084 58.5856 121.618 57.8883 123.362 57.8186C124.268 57.8186 125.175 57.958 126.081 58.3067C126.988 58.6554 127.825 59.2133 128.662 59.5619C129.08 59.7014 129.568 59.7711 129.987 59.7014C130.405 59.6317 130.823 59.4225 131.172 59.1435C131.939 58.5856 132.497 57.958 133.264 57.4001C133.962 56.8423 134.868 56.6331 135.635 56.6331C136.402 56.6331 137.169 56.8423 137.727 57.1909C138.285 57.5396 138.704 58.0278 139.052 58.4462C139.401 58.8646 139.68 59.1435 139.959 59.3527C140.656 59.7014 141.075 59.4922 141.075 59.5619Z" fill="#455A64"/>
<path d="M130.056 86.8284C130.196 86.7586 130.405 87.9442 131.59 88.6415C132.706 89.3389 133.961 88.9902 133.961 89.1296C133.961 89.1994 133.752 89.4086 133.194 89.4783C132.706 89.6178 131.869 89.5481 131.172 89.1296C130.475 88.7112 130.126 88.0836 129.986 87.5955C129.917 87.1771 129.986 86.8284 130.056 86.8284Z" fill="#263238"/>
<path d="M202.232 195.755C200.14 193.942 197.281 193.035 194.561 193.244L189.819 208.238C193.306 208.377 196.723 210.19 200.07 209.284C202.72 208.516 204.812 206.006 205.161 203.286C205.51 200.497 204.324 197.638 202.232 195.755Z" fill="#0053CC"/>
<path d="M194.631 192.895C194.631 192.756 195.119 192.686 196.026 192.686C196.932 192.686 198.257 192.826 199.861 193.384C201.465 193.942 203.209 195.197 204.534 197.01C205.231 197.916 205.789 199.032 206.068 200.287C206.416 201.543 206.486 202.868 206.207 204.193C205.928 205.518 205.37 206.773 204.464 207.749C203.627 208.725 202.511 209.423 201.395 209.841C199.164 210.678 197.072 210.538 195.468 210.19C193.864 209.841 192.609 209.423 191.772 209.074C190.935 208.725 190.517 208.446 190.517 208.307C190.587 208.167 191.075 208.237 191.911 208.377C192.818 208.516 194.073 208.795 195.607 208.935C197.142 209.074 198.955 209.004 200.698 208.307C201.535 207.958 202.372 207.4 202.999 206.633C203.627 205.866 204.115 204.89 204.324 203.844C204.743 201.682 204.115 199.59 203.069 197.986C201.953 196.382 200.559 195.197 199.234 194.569C197.909 193.872 196.653 193.593 195.817 193.384C195.119 193.174 194.631 193.035 194.631 192.895Z" fill="#F5F5F5"/>
<path d="M150.977 249.032L140.726 277.763L176.361 290.734C177.407 287.247 161.437 273.718 161.437 273.718L168.759 255.587L150.977 249.032Z" fill="#0053CC"/>
<g opacity="0.6">
<g opacity="0.6">
<g opacity="0.6">
<g opacity="0.6">
<g opacity="0.6">
<path opacity="0.6" d="M150.977 268.14C150.21 268.07 149.443 268.698 149.373 269.465C149.303 270.232 149.861 270.999 150.628 271.069C151.395 271.138 152.302 270.441 152.302 269.674C152.302 268.907 151.535 268.07 150.768 268.14" fill="white"/>
</g>
</g>
</g>
</g>
</g>
<path d="M140.726 277.763L141.772 274.834L175.663 288.363C175.663 288.363 176.988 289.618 176.43 290.664L140.726 277.763Z" fill="white"/>
<path d="M162.065 273.719C161.995 273.858 161.088 273.649 160.042 273.928C158.996 274.137 158.229 274.765 158.16 274.625C158.02 274.555 158.648 273.579 159.903 273.3C161.228 273.021 162.204 273.579 162.065 273.719Z" fill="#263238"/>
<path d="M165.273 276.648C165.273 276.857 164.366 276.857 163.529 277.345C162.623 277.833 162.204 278.6 162.065 278.531C161.925 278.531 162.134 277.415 163.25 276.787C164.296 276.16 165.342 276.508 165.273 276.648Z" fill="#263238"/>
<path d="M165.761 281.878C165.621 281.878 165.691 280.902 166.458 280.134C167.225 279.367 168.201 279.228 168.201 279.437C168.271 279.646 167.504 279.925 166.876 280.623C166.249 281.25 165.97 281.948 165.761 281.878Z" fill="#263238"/>
<path d="M163.32 269.395C163.181 269.534 162.483 268.977 161.437 268.698C160.461 268.419 159.554 268.419 159.485 268.279C159.415 268.14 160.391 267.721 161.577 268.07C162.832 268.488 163.39 269.325 163.32 269.395Z" fill="#263238"/>
<path d="M163.947 264.862C163.947 264.932 163.18 264.793 162.134 264.235C161.646 263.956 161.019 263.537 160.461 262.979C160.182 262.701 159.903 262.422 159.624 262.073C159.484 261.933 159.345 261.724 159.205 261.445C159.066 261.166 159.136 260.678 159.484 260.469C159.763 260.26 160.112 260.26 160.391 260.33C160.67 260.399 160.879 260.539 161.019 260.678C161.367 260.887 161.716 261.166 161.995 261.445C162.553 262.003 162.971 262.561 163.25 263.119C163.808 264.165 163.878 264.932 163.808 264.932C163.738 264.932 163.529 264.304 162.901 263.328C162.622 262.84 162.204 262.352 161.646 261.864C161.367 261.655 161.088 261.376 160.74 261.166C160.391 260.957 160.112 260.818 159.903 260.957C159.833 261.027 159.833 261.027 159.903 261.166C159.972 261.306 160.042 261.445 160.182 261.585C160.391 261.933 160.67 262.212 160.949 262.491C161.437 263.049 161.995 263.468 162.413 263.747C163.32 264.514 164.017 264.793 163.947 264.862Z" fill="#263238"/>
<path d="M163.668 265.072C163.599 265.072 163.459 264.305 163.808 263.189C163.947 262.631 164.296 261.934 164.784 261.306C164.993 260.957 165.272 260.678 165.621 260.4C165.97 260.121 166.388 259.772 167.086 259.911C167.434 260.051 167.643 260.4 167.643 260.678C167.643 260.957 167.643 261.167 167.574 261.376C167.504 261.794 167.364 262.213 167.155 262.561C166.737 263.259 166.249 263.817 165.691 264.096C164.645 264.793 163.878 264.723 163.878 264.653C163.878 264.514 164.575 264.444 165.412 263.747C165.83 263.398 166.249 262.91 166.597 262.282C166.737 261.934 166.876 261.585 166.946 261.236C167.016 260.818 167.016 260.469 166.807 260.469C166.597 260.4 166.249 260.609 165.97 260.818C165.691 261.097 165.412 261.376 165.203 261.655C164.714 262.213 164.436 262.771 164.226 263.328C163.808 264.305 163.738 265.072 163.668 265.072Z" fill="#263238"/>
<path d="M116.388 172.324C110.949 172.463 105.858 173.23 102.092 177.135C97.1412 182.365 91.0045 189.757 90.6558 194.918C90.1677 202.589 94.7702 204.89 98.1872 206.773C99.6517 207.61 101.395 207.958 103.069 207.889L165.621 207.4L167.574 196.801L127.127 186.828L128.801 171.626L116.388 172.324Z" fill="#263238"/>
<path d="M128.871 171.626L148.536 170.72C148.536 170.72 182.497 172.603 189.749 179.227C197.002 185.852 196.095 193.453 193.655 200.706C191.214 207.958 169.945 254.332 169.945 254.332C169.945 254.332 171.688 257.261 170.712 260.19C169.178 264.723 165.133 265.49 165.133 265.49L146.235 258.516C146.235 258.516 143.654 257.61 145.468 255.169C147.281 252.728 148.466 252.31 148.466 252.31V247.498C148.466 247.498 155.091 235.434 155.719 233.76C156.346 232.087 162.692 207.54 162.692 207.54L166.946 200.287C166.946 200.287 156.695 195.476 147.839 191.989L127.127 186.898L128.871 171.626Z" fill="#263238"/>
<path d="M160.81 257.68C160.74 257.75 160.182 257.261 159.136 256.564C158.09 255.867 156.626 255.1 154.882 254.402C153.139 253.775 151.465 253.356 150.28 253.217C149.094 253.008 148.327 253.008 148.327 252.938C148.327 252.868 149.094 252.868 150.349 252.938C151.605 253.077 153.278 253.356 155.022 254.054C156.765 254.751 158.299 255.588 159.276 256.355C160.252 257.122 160.81 257.68 160.81 257.68Z" fill="#455A64"/>
<path d="M170.224 254.402C170.154 254.402 169.736 253.984 169.108 253.217C168.48 252.45 167.644 251.404 166.737 250.218C165.831 249.033 165.063 247.847 164.575 247.08C164.017 246.243 163.738 245.685 163.808 245.685C163.878 245.685 164.227 246.173 164.784 246.941C165.412 247.847 166.179 248.893 167.016 250.009C167.853 251.125 168.62 252.171 169.317 253.077C169.945 253.844 170.294 254.332 170.224 254.402Z" fill="#455A64"/>
<path d="M177.197 193.663C177.197 193.732 176.5 193.872 175.384 194.22C174.268 194.569 172.804 195.197 171.339 196.103C169.875 197.01 168.62 198.126 167.853 198.893C167.016 199.73 166.597 200.287 166.528 200.218C166.528 200.218 166.876 199.59 167.643 198.684C168.41 197.777 169.596 196.661 171.13 195.755C172.664 194.778 174.198 194.22 175.314 193.942C176.43 193.663 177.197 193.593 177.197 193.663Z" fill="#455A64"/>
<path d="M157.811 226.438C157.811 226.438 157.811 226.299 157.88 226.02C157.95 225.741 158.02 225.322 158.159 224.834C158.438 223.788 158.857 222.394 159.275 220.58C160.251 216.954 161.646 212.073 163.18 206.703C163.947 203.983 164.645 201.403 165.412 199.102C166.318 196.801 167.713 194.988 168.968 193.663C170.293 192.338 171.479 191.431 172.316 190.873C172.734 190.594 173.083 190.385 173.362 190.246C173.571 190.106 173.71 190.036 173.71 190.036C173.71 190.036 173.222 190.385 172.385 190.943C171.549 191.571 170.363 192.477 169.108 193.802C167.853 195.127 166.528 196.94 165.691 199.172C164.993 201.473 164.296 204.123 163.529 206.773C161.995 212.142 160.6 217.024 159.554 220.65C159.066 222.394 158.647 223.788 158.299 224.834C158.159 225.322 158.02 225.671 157.95 225.95C157.88 226.368 157.811 226.438 157.811 226.438Z" fill="#455A64"/>
<path d="M140.447 191.083C140.377 191.083 139.959 187.387 139.54 182.854C139.122 178.321 138.913 174.625 138.983 174.625C139.052 174.625 139.471 178.321 139.889 182.854C140.308 187.317 140.517 191.013 140.447 191.083Z" fill="#455A64"/>
<path d="M107.671 200.845C107.602 200.845 107.323 200.287 106.695 199.381C106.067 198.474 105.091 197.359 103.836 196.382C102.581 195.406 101.256 194.709 100.21 194.36C99.2334 193.942 98.5361 193.802 98.6058 193.732C98.6058 193.663 99.3032 193.732 100.349 194.081C101.395 194.43 102.79 195.057 104.115 196.103C105.44 197.149 106.416 198.335 106.974 199.241C107.462 200.218 107.741 200.845 107.671 200.845Z" fill="#455A64"/>
<path d="M119.735 187.526C119.666 187.596 118.899 187.038 117.434 186.41C115.97 185.783 113.878 185.016 111.507 184.667C109.136 184.318 106.904 184.458 105.37 184.667C103.766 184.876 102.859 185.155 102.859 185.085C102.859 185.085 103.069 184.946 103.487 184.806C103.906 184.667 104.533 184.527 105.3 184.388C106.904 184.109 109.136 183.969 111.576 184.318C114.017 184.667 116.109 185.434 117.574 186.201C118.271 186.55 118.829 186.898 119.247 187.177C119.526 187.317 119.735 187.526 119.735 187.526Z" fill="#455A64"/>
<path d="M166.807 196.801C166.807 196.801 166.667 196.801 166.319 196.731C165.97 196.661 165.482 196.522 164.924 196.452C163.669 196.173 161.925 195.755 159.833 195.336C155.51 194.36 149.582 193.105 142.957 191.78C136.332 190.455 130.335 189.409 126.012 188.642C123.85 188.293 122.106 187.944 120.851 187.735C120.293 187.665 119.805 187.526 119.457 187.456C119.108 187.386 118.968 187.386 118.968 187.317C118.968 187.247 119.108 187.317 119.457 187.386C119.805 187.456 120.293 187.526 120.851 187.596C122.106 187.735 123.85 188.014 126.012 188.363C130.405 189.06 136.402 190.106 142.957 191.361C149.582 192.686 155.51 194.011 159.833 195.057C161.995 195.545 163.738 196.034 164.924 196.313C165.482 196.452 165.97 196.592 166.319 196.661C166.667 196.801 166.876 196.801 166.807 196.801Z" fill="#455A64"/>
<path d="M127.197 188.642C127.128 188.642 126.988 187.805 126.36 186.619C126.012 186.062 125.524 185.364 124.896 184.737C124.268 184.109 123.501 183.481 122.734 182.854C121.13 181.598 119.457 180.692 118.271 180.064C117.086 179.437 116.319 179.018 116.388 178.949C116.388 178.879 117.155 179.227 118.411 179.785C119.666 180.343 121.34 181.25 123.013 182.505C123.85 183.133 124.617 183.76 125.245 184.458C125.872 185.085 126.361 185.783 126.639 186.41C126.918 187.038 127.128 187.596 127.197 187.944C127.197 188.433 127.197 188.642 127.197 188.642Z" fill="#455A64"/>
<path d="M196.863 198.126C196.932 198.196 195.886 199.242 195.05 200.845C194.213 202.449 194.003 203.914 193.864 203.914C193.794 203.914 193.864 202.38 194.701 200.706C195.607 199.032 196.793 198.056 196.863 198.126Z" fill="#263238"/>
<path opacity="0.3" d="M152.093 126.647L156.556 158.168L156.765 158.656C157.881 147.847 156.207 136.759 152.093 126.647Z" fill="black"/>
<path d="M176.221 144.779L161.646 170.232L125.802 170.999L125.733 172.603L160.461 172.324L161.576 172.254L198.257 172.324L205.649 159.563L215.133 145.964C215.761 145.058 215.133 143.872 214.017 143.872L177.406 144.012C176.848 144.081 176.43 144.36 176.221 144.779Z" fill="#E0E0E0"/>
<path d="M205.579 159.632C205.579 159.632 207.462 161.375 207.183 162.84C206.904 164.304 206.974 165.42 205.579 165.49C205.579 165.49 205.649 167.372 203.697 167.651C203.697 167.651 204.115 169.953 201.465 170.371C201.465 170.371 200.628 172.812 198.955 172.254C197.281 171.626 196.165 170.999 196.165 170.999L195.677 170.092C195.677 170.092 193.167 169.186 193.794 167.721C194.143 166.884 195.468 166.675 195.468 166.675C195.468 166.675 194.91 165.42 195.607 164.513C196.235 163.746 198.118 164.374 198.118 164.374C198.118 164.374 197.978 163.328 198.745 162.491C199.373 161.724 202.511 163.816 202.511 163.816L204.185 161.794L205.579 159.632Z" fill="#FFBE9D"/>
<path d="M201.465 170.371C201.395 170.441 200.001 169.674 198.397 168.628C196.723 167.582 195.468 166.675 195.468 166.605C195.537 166.535 196.932 167.303 198.536 168.349C200.21 169.395 201.535 170.301 201.465 170.371Z" fill="#EB996E"/>
<path d="M203.697 167.651C203.627 167.721 202.372 167.024 200.837 166.117C199.303 165.211 198.118 164.374 198.187 164.304C198.257 164.234 199.512 164.932 201.047 165.838C202.581 166.745 203.766 167.582 203.697 167.651Z" fill="#EB996E"/>
<path d="M200.629 162.63C200.698 162.561 201.814 163.119 203.209 163.955C204.534 164.792 205.649 165.49 205.58 165.559C205.51 165.699 204.325 165.141 203 164.304C201.675 163.467 200.629 162.7 200.629 162.63Z" fill="#EB996E"/>
<path d="M215.063 144.918C215.063 144.918 214.994 144.918 214.854 144.918C214.715 144.918 214.575 144.918 214.366 144.918C213.878 144.918 213.25 144.918 212.413 144.918C210.67 144.918 208.16 144.918 205.161 144.988C198.955 144.988 190.517 144.988 181.102 145.057C180.544 145.057 179.917 145.057 179.359 145.057C178.801 144.988 178.313 145.267 178.034 145.685C177.476 146.661 176.918 147.638 176.43 148.614C175.384 150.566 174.338 152.449 173.362 154.193C171.409 157.749 169.596 160.957 168.132 163.607C166.667 166.257 165.412 168.419 164.575 169.953C164.157 170.65 163.808 171.278 163.599 171.696C163.459 171.905 163.39 172.045 163.32 172.115C163.25 172.184 163.25 172.254 163.25 172.254C163.25 172.254 163.25 172.184 163.32 172.115C163.39 171.975 163.459 171.836 163.529 171.626C163.738 171.208 164.087 170.65 164.436 169.883C165.272 168.349 166.458 166.187 167.922 163.467C169.387 160.748 171.13 157.54 173.083 153.983C174.059 152.17 175.105 150.357 176.151 148.405C176.709 147.428 177.267 146.452 177.825 145.406C178.173 144.848 178.871 144.569 179.429 144.639C179.987 144.639 180.614 144.639 181.172 144.639C190.517 144.639 199.024 144.709 205.231 144.709C208.299 144.709 210.74 144.778 212.483 144.778C213.32 144.778 213.948 144.778 214.436 144.778C214.645 144.778 214.784 144.778 214.924 144.778C214.994 144.918 215.063 144.918 215.063 144.918Z" fill="#263238"/>
<path d="M189.261 157.749C188.634 158.446 188.564 159.492 189.261 160.05C189.889 160.608 190.935 160.469 191.562 159.771C192.19 159.074 192.26 158.028 191.562 157.47C190.935 156.912 189.889 156.982 189.261 157.749Z" fill="white"/>
<path opacity="0.3" d="M87.448 147.917C87.169 148.056 86.7506 148.265 86.7506 148.614C86.7506 148.893 87.0295 149.102 87.2388 149.172C87.5177 149.242 88.494 148.823 88.7032 148.753C92.4689 147.917 95.607 148.753 99.1635 150.148L99.3029 150.009C97.978 146.94 91.4926 146.243 87.448 147.917Z" fill="black"/>
<path d="M281.73 289.409C281.73 289.479 218.62 289.618 140.865 289.618C63.0406 289.618 0 289.548 0 289.409C0 289.269 63.0406 289.2 140.865 289.2C218.69 289.269 281.73 289.339 281.73 289.409Z" fill="#263238"/>
<path d="M194.771 41.6317L196.584 43.7935L201.744 41.6317L200.28 39.4001L194.771 41.6317Z" fill="#455A64"/>
<path d="M192.399 31.4507C192.399 32.9152 191.214 34.1007 189.75 34.1007C188.285 34.1007 187.1 32.9152 187.1 31.4507C187.1 29.9863 188.285 28.8008 189.75 28.8008C191.214 28.8008 192.399 29.9863 192.399 31.4507Z" fill="#0053CC"/>
<path d="M132.427 48.1255C132.427 48.8926 131.8 49.4505 131.102 49.4505C130.335 49.4505 129.777 48.8229 129.777 48.1255C129.777 47.3584 130.405 46.8005 131.102 46.8005C131.8 46.8005 132.427 47.4282 132.427 48.1255Z" fill="#0053CC"/>
<path d="M70.0838 51.3251C70.0838 51.883 69.5956 52.3711 69.0377 52.3711C68.4798 52.3711 67.9917 51.883 67.9917 51.3251C67.9917 50.7672 68.4798 50.2791 69.0377 50.2791C69.5956 50.2791 70.0838 50.6975 70.0838 51.3251Z" fill="#0053CC"/>
<path d="M66.2485 40.0977L69.2471 40.2372L70.7115 34.3794L67.9221 34.5189L66.2485 40.0977Z" fill="#455A64"/>
<path d="M159.973 63.8853L161.019 66.7445L167.016 65.6985L165.761 63.188L159.973 63.8853Z" fill="#0053CC"/>
<path d="M99.5121 47.5674L97.6293 49.9384L101.674 54.4712L103.208 52.0304L99.5121 47.5674Z" fill="#455A64"/>
<path d="M92.3294 15.1326L99.3726 22.385L109.345 18.6193L109.763 21.0601L105.44 29.9164L109.414 36.4715L109.066 38.4939L99.4424 36.8202L93.7241 43.0964L92.3991 42.1201L91.2136 34.1005L82.2178 29.4283L81.8691 27.6152L90.8649 25.1744L92.3294 15.1326Z" fill="#8FB8F4"/>
<path d="M92.3294 13.1101L99.3726 20.3626L109.345 18.6192L104.672 27.5453L109.414 36.4714L99.4424 34.7978L92.3991 42.12L90.9347 32.0781L81.8691 27.615L90.8649 23.152L92.3294 13.1101Z" fill="#0053CC"/>
<path d="M165.691 15.1326L158.648 22.385L148.676 18.6193L148.257 21.0601L152.581 29.9164L148.606 36.4715L148.955 38.4939L158.578 36.8202L164.296 43.0964L165.621 42.1201L166.807 34.1005L175.803 29.4283L176.221 27.6152L167.155 25.1744L165.691 15.1326Z" fill="#8FB8F4"/>
<path d="M165.691 13.1101L158.648 20.3626L148.675 18.6192L153.348 27.5453L148.606 36.4714L158.578 34.7978L165.621 42.12L167.085 32.0781L176.221 27.615L167.155 23.152L165.691 13.1101Z" fill="#0053CC"/>
<path d="M128.801 2.44067L134.659 13.947L148.257 13.1799L147.839 16.318L139.191 25.523L141.493 35.0768L140.377 37.3083L129.219 31.6597L119.875 37.1688L118.619 35.4254L120.223 25.2441L111.018 16.1088L111.228 13.7378L123.222 14.1562L128.801 2.44067Z" fill="#8FB8F4"/>
<path d="M129.568 0L135.426 11.5063L148.257 13.18L139.122 22.3153L141.493 35.0768L129.986 29.2191L118.62 35.4255L120.642 22.5942L111.228 13.7378L123.989 11.6458L129.568 0Z" fill="#0053CC"/>
<path d="M152.999 79.9941L162.832 81.1099C165.203 77.7626 168.48 74.9732 172.595 73.2298C184.31 68.2089 197.839 73.5785 202.86 85.294C207.881 97.0095 202.511 110.538 190.796 115.559C179.08 120.58 165.551 115.21 160.53 103.495C158.438 98.6134 158.159 93.3833 159.415 88.6413L152.999 79.9941Z" fill="#FAFAFA"/>
<path d="M152.999 79.9943C153.417 80.4825 155.37 83.1324 159.484 88.5717H159.345C159.345 88.502 159.415 88.502 159.484 88.502C159.554 88.502 159.554 88.5717 159.554 88.5717C158.717 91.7796 158.438 95.9637 159.694 100.496C160.042 101.612 160.391 102.798 160.949 103.913C161.228 104.471 161.507 105.029 161.786 105.587C162.134 106.145 162.483 106.703 162.832 107.261C164.296 109.423 166.249 111.445 168.69 113.119C171.061 114.792 173.85 116.047 176.918 116.675C179.987 117.372 183.264 117.442 186.542 116.745C189.75 116.047 192.957 114.583 195.747 112.491C198.466 110.399 200.907 107.609 202.441 104.332C204.045 100.985 204.882 97.3584 204.743 93.8019C204.673 90.2454 203.697 86.8284 202.162 83.8298C200.628 80.8311 198.466 78.2509 195.956 76.2984C193.446 74.3458 190.656 73.0208 187.797 72.2537C184.938 71.4866 182.148 71.3472 179.498 71.5564C176.849 71.8353 174.408 72.6024 172.246 73.5787C167.922 75.5313 164.994 78.5299 163.111 81.1798L163.041 81.2496C156.625 80.4127 153.627 80.0641 152.999 79.9943C153.627 80.0641 156.625 80.343 162.832 80.9706L162.762 81.0404C164.645 78.3904 167.574 75.3221 171.897 73.3695C174.059 72.3932 176.5 71.6261 179.22 71.3472C181.869 71.0682 184.798 71.2077 187.657 71.9748C190.517 72.7419 193.376 74.0668 195.956 76.0194C198.536 77.972 200.698 80.6219 202.302 83.6206C203.906 86.6889 204.812 90.1757 204.952 93.7322C205.091 97.3584 204.254 101.054 202.651 104.402C201.116 107.749 198.676 110.538 195.886 112.7C193.097 114.862 189.819 116.326 186.542 117.024C183.264 117.721 179.917 117.651 176.779 116.954C173.71 116.257 170.851 115.001 168.48 113.328C166.04 111.654 164.087 109.562 162.623 107.4C162.274 106.842 161.925 106.285 161.577 105.727C161.298 105.169 161.019 104.541 160.74 103.983C160.182 102.867 159.763 101.682 159.484 100.566C158.229 95.9637 158.578 91.7796 159.415 88.5717L159.554 88.6415C159.554 88.7112 159.484 88.7112 159.415 88.7112C155.37 83.2021 153.417 80.5522 152.999 79.9943Z" fill="#263238"/>
<path d="M173.222 86.1309C173.222 86.1309 173.222 86.2704 173.222 86.4796C173.222 86.6888 173.222 87.0375 173.222 87.3862C173.222 88.223 173.222 89.3387 173.292 90.7335C173.292 93.5926 173.362 97.707 173.362 102.588L173.222 102.449C178.034 102.449 183.613 102.449 189.61 102.449C189.68 102.379 189.261 102.798 189.401 102.658V102.588V102.519V102.379V102.1V101.542C189.401 101.194 189.401 100.775 189.401 100.427C189.401 99.6596 189.401 98.9622 189.401 98.2649C189.401 96.8004 189.401 95.4057 189.401 94.011C189.401 91.2913 189.401 88.6414 189.401 86.2704L189.54 86.4099C184.659 86.4099 180.614 86.3401 177.685 86.3401C176.29 86.3401 175.105 86.3401 174.338 86.2704C173.989 86.2704 173.641 86.2704 173.431 86.2704C173.362 86.1309 173.222 86.1309 173.222 86.1309C173.222 86.1309 173.292 86.1309 173.501 86.1309C173.71 86.1309 173.989 86.1309 174.338 86.1309C175.105 86.1309 176.221 86.1309 177.685 86.0612C180.614 86.0612 184.728 85.9915 189.61 85.9915H189.749V86.1309C189.749 88.5019 189.749 91.1519 189.749 93.8715C189.749 95.2662 189.749 96.6609 189.749 98.1254C189.749 98.8227 189.749 99.5898 189.749 100.287C189.749 100.636 189.749 101.054 189.749 101.403V101.961V102.24V102.379V102.449V102.519C189.889 102.379 189.54 102.728 189.54 102.728C183.543 102.728 177.894 102.728 173.152 102.728H173.013V102.588C173.013 97.6372 173.083 93.5229 173.083 90.6637C173.083 89.269 173.083 88.1533 173.152 87.3164C173.152 86.9678 173.152 86.6888 173.152 86.4796C173.222 86.2704 173.222 86.1309 173.222 86.1309Z" fill="#263238"/>
<path d="M187.866 88.8508C188.076 89.06 185.914 92.1981 182.915 95.9638C182.357 96.7309 181.73 97.4283 181.242 98.0559L180.893 98.4743L180.475 98.1256C177.894 95.8244 176.151 94.0112 176.36 93.8718C176.5 93.6626 178.522 95.127 181.172 97.3585L180.405 97.4283C180.893 96.7309 181.451 96.0336 182.078 95.2665C185.077 91.5705 187.657 88.7114 187.866 88.8508Z" fill="#0053CC"/>
</svg>
