<svg width="24" height="24" viewBox="0 0 24 24" fill="none" xmlns="http://www.w3.org/2000/svg">
<g clip-path="url(#clip0)">
<path d="M23.5202 17.4867L15.112 2.92306C13.7386 0.517184 10.2656 0.517184 8.89721 2.92306L0.484057 17.4867C-0.889316 19.8926 0.81999 22.8814 3.59144 22.8814H20.3832C23.1546 22.8814 24.8935 19.863 23.5202 17.4867ZM11.9996 19.6506C11.2685 19.6506 10.6609 19.0429 10.6609 18.3118C10.6609 17.5806 11.2685 16.973 11.9996 16.973C12.7308 16.973 13.3384 17.5806 13.3088 18.3463C13.3434 19.0429 12.7012 19.6506 11.9996 19.6506ZM13.2199 10.9953C13.1606 12.0328 13.0964 13.0653 13.0371 14.1027C13.0074 14.4386 13.0074 14.7449 13.0074 15.0759C12.9778 15.6243 12.548 16.0492 11.9996 16.0492C11.4513 16.0492 11.0264 15.6539 10.9918 15.1056C10.9029 13.4901 10.8091 11.9043 10.7201 10.2889C10.6905 9.86403 10.6609 9.43423 10.6263 9.00938C10.6263 8.30787 11.0215 7.72987 11.6637 7.54708C12.3059 7.39393 12.9432 7.70022 13.2199 8.30787C13.3137 8.5203 13.3434 8.73273 13.3434 8.97973C13.3137 9.65654 13.2495 10.3284 13.2199 10.9953Z" fill="#D6D6D6"/>
</g>
<defs>
<clipPath id="clip0">
<rect width="24" height="24" fill="white"/>
</clipPath>
</defs>
</svg>
