<svg width="20" height="20" viewBox="0 0 20 20" fill="none" xmlns="http://www.w3.org/2000/svg">
<path d="M17.0322 12.79H2.93994C1.8143 12.79 0.898468 13.7059 0.898468 14.8315V17.9585C0.898468 19.0841 1.8143 20 2.93994 20H17.0322C18.1578 20 19.0737 19.0841 19.0737 17.9585V14.8315C19.0737 13.7059 18.1578 12.79 17.0322 12.79V12.79ZM5.70529 16.746L5.55225 16.7958L5.64685 16.9259C5.83713 17.1879 5.77899 17.5547 5.517 17.7452C5.41293 17.8207 5.29239 17.8572 5.17276 17.8572C4.99149 17.8572 4.81265 17.7733 4.69791 17.6153L4.6033 17.4852L4.5087 17.6153C4.39395 17.7733 4.21512 17.8572 4.03384 17.8572C3.91422 17.8572 3.79367 17.8207 3.68961 17.745C3.42761 17.5547 3.36948 17.1879 3.55991 16.9259L3.65436 16.7958L3.50146 16.746C3.19339 16.6459 3.02478 16.3151 3.12488 16.007C3.22498 15.699 3.55563 15.5305 3.86386 15.6305L4.01691 15.6802V15.5194C4.01691 15.1954 4.27951 14.9328 4.6033 14.9328C4.92725 14.9328 5.18985 15.1954 5.18985 15.5194V15.6802L5.34274 15.6305C5.65097 15.5305 5.98178 15.699 6.08173 16.007C6.18182 16.3151 6.01337 16.6459 5.70529 16.746ZM9.2937 16.746L9.14081 16.7958L9.23526 16.9259C9.42569 17.1879 9.36755 17.5547 9.10556 17.7452C9.0015 17.8207 8.8808 17.8572 8.76132 17.8572C8.5799 17.8572 8.40121 17.7733 8.28647 17.6153L8.19186 17.4852L8.09726 17.6153C7.98251 17.7733 7.80368 17.8572 7.62241 17.8572C7.50278 17.8572 7.38223 17.8209 7.27817 17.7452C7.01617 17.5547 6.95804 17.1879 7.14832 16.9259L7.24292 16.7958L7.08987 16.746C6.7818 16.6459 6.61334 16.3151 6.71344 16.007C6.81339 15.699 7.1442 15.5305 7.45242 15.6305L7.60532 15.6802V15.5194C7.60532 15.1954 7.86792 14.9328 8.19186 14.9328C8.51566 14.9328 8.77826 15.1954 8.77826 15.5194V15.6802L8.9313 15.6305C9.23953 15.5305 9.57019 15.699 9.67029 16.007C9.77039 16.3151 9.60178 16.6459 9.2937 16.746V16.746ZM12.8823 16.746L12.7294 16.7958L12.8238 16.9259C13.0143 17.1879 12.9561 17.5547 12.6941 17.7452C12.5901 17.8207 12.4694 17.8572 12.3499 17.8572C12.1685 17.8572 11.9898 17.7733 11.875 17.6153L11.7804 17.4852L11.6858 17.6153C11.5711 17.7733 11.3922 17.8572 11.211 17.8572C11.0913 17.8572 10.9708 17.8209 10.8667 17.7452C10.6047 17.5547 10.5466 17.1879 10.7369 16.9259L10.8315 16.7958L10.6784 16.746C10.3704 16.6459 10.2019 16.3151 10.302 16.007C10.4019 15.699 10.7328 15.5305 11.041 15.6305L11.1939 15.6802V15.5194C11.1939 15.1954 11.4565 14.9328 11.7804 14.9328C12.1042 14.9328 12.3668 15.1954 12.3668 15.5194V15.6802L12.5199 15.6305C12.8281 15.5305 13.1588 15.699 13.2589 16.007C13.3589 16.3151 13.1903 16.6459 12.8823 16.746V16.746ZM16.4708 16.746L16.3178 16.7958L16.4124 16.9259C16.6028 17.1879 16.5447 17.5547 16.2827 17.745C16.1786 17.8207 16.0579 17.8572 15.9384 17.8572C15.757 17.8572 15.5782 17.7733 15.4634 17.6153L15.369 17.4852L15.2744 17.6153C15.1596 17.7733 14.9808 17.8572 14.7994 17.8572C14.6799 17.8572 14.5594 17.8209 14.4553 17.7452C14.1931 17.5547 14.1352 17.1879 14.3254 16.9259L14.42 16.7958L14.267 16.746C13.9589 16.6459 13.7905 16.3151 13.8904 16.007C13.9905 15.699 14.3213 15.5305 14.6294 15.6305L14.7824 15.6802V15.5194C14.7824 15.1954 15.045 14.9328 15.369 14.9328C15.6928 14.9328 15.9554 15.1954 15.9554 15.5194V15.6802L16.1084 15.6305C16.4167 15.5305 16.7473 15.699 16.8474 16.007C16.9475 16.3151 16.7789 16.6459 16.4708 16.746V16.746Z" fill="#4C4C4C"/>
<path d="M7.10281 11.6422H12.8693C13.6153 11.6422 14.2221 11.0352 14.2221 10.2893V5.39459C14.2221 4.64874 13.6153 4.0419 12.8693 4.0419H12.7635V2.77756C12.7637 1.24603 11.5176 0 9.98611 0C8.45459 0 7.20856 1.24603 7.20856 2.77756V4.0419H7.10281C6.35696 4.0419 5.75012 4.64874 5.75012 5.39474V10.2893C5.75012 11.0353 6.35696 11.6422 7.10281 11.6422V11.6422ZM10.5725 8.07144V8.59787C10.5725 8.92181 10.3099 9.18442 9.98611 9.18442C9.66217 9.18442 9.39957 8.92181 9.39957 8.59787V8.07144C9.20044 7.90405 9.07379 7.65335 9.07379 7.37274C9.07379 6.8689 9.48227 6.46057 9.98611 6.46057C10.49 6.46057 10.8983 6.86905 10.8983 7.37274C10.8983 7.65335 10.7716 7.90405 10.5725 8.07144ZM8.3815 2.77756C8.3815 1.89285 9.10126 1.17294 9.98611 1.17294C10.8708 1.17294 11.5907 1.8927 11.5907 2.77756V4.0419H8.3815V2.77756Z" fill="#4C4C4C"/>
</svg>
