<svg width="22" height="22" viewBox="0 0 22 22" fill="none" xmlns="http://www.w3.org/2000/svg">
<g clip-path="url(#clip0)">
<path d="M9.92164 10.8871C10.4961 11.2701 11.5041 11.2701 12.0786 10.887C12.0787 10.887 12.0789 10.8869 12.0789 10.8869L21.8701 4.35941C21.5489 3.43059 20.6662 2.76147 19.6296 2.76147H2.37051C1.33388 2.76147 0.451168 3.43059 0.129974 4.35941L9.92134 10.8869C9.92147 10.887 9.92156 10.887 9.92164 10.8871Z" fill="#BDBDBD"/>
<path d="M12.7939 11.9595C12.7937 11.9596 12.7937 11.9596 12.7936 11.9597C12.2907 12.2949 11.6453 12.4625 11 12.4625C10.3546 12.4625 9.70938 12.2949 9.20651 11.9596C9.20643 11.9596 9.20638 11.9596 9.2063 11.9595L0 5.82202V16.8682C0 18.1752 1.06336 19.2385 2.37043 19.2385H19.6297C20.9367 19.2385 22 18.1752 22 16.8682V5.82202L12.7939 11.9595Z" fill="#BDBDBD"/>
</g>
<defs>
<clipPath id="clip0">
<rect width="22" height="22" fill="white"/>
</clipPath>
</defs>
</svg>
