<svg width="22" height="22" viewBox="0 0 22 22" fill="none" xmlns="http://www.w3.org/2000/svg">
<path d="M8.77455 20.376C8.54182 20.3264 8.39636 20.3884 8.32364 20.5744L8.07636 21.3182C8.01818 21.4793 8.10545 21.5909 8.33818 21.6653C9.02182 21.8884 9.74909 22 10.52 22C13.5018 22 15 20.3884 15 17.1405C15 15.8884 14.6364 14.8843 13.9382 14.1281C13.2255 13.3843 12.1636 13 10.7673 13C9.60364 13 8.67273 13.2975 8.00364 13.8802C7.33455 14.4628 7 15.219 7 16.1612C7 17.0165 7.29091 17.7107 7.87273 18.2438C8.45455 18.7769 9.29818 19.0372 10.4327 19.0372C11.1018 19.0372 11.6545 18.938 12.12 18.7273C12.5709 18.5289 12.9055 18.281 13.1091 17.9835C13.0509 19.7438 12.1345 20.6116 10.36 20.6116C9.89455 20.6116 9.35636 20.5372 8.77455 20.376ZM10.7964 14.4256C11.4655 14.4256 11.9745 14.5992 12.3382 14.9215C12.7018 15.2562 12.8909 15.6529 12.8909 16.124C12.8909 16.6074 12.7018 17.0041 12.3382 17.314C11.9745 17.6364 11.4655 17.7851 10.7964 17.7851C10.1273 17.7851 9.63273 17.6364 9.31273 17.3264C8.97818 17.0289 8.81818 16.6446 8.81818 16.1736C8.81818 15.6529 8.99273 15.2314 9.34182 14.9091C9.69091 14.5868 10.1709 14.4256 10.7964 14.4256Z" fill="#264686"/>
<path d="M6.0225 6.3C6.0225 6.096 5.9985 5.904 5.9745 5.736C5.9385 5.568 5.8785 5.4 5.7945 5.256C5.6985 5.112 5.6265 4.98 5.5665 4.872C5.4945 4.776 5.3865 4.668 5.2185 4.548C5.0505 4.428 4.9185 4.344 4.8465 4.284C4.7745 4.236 4.6185 4.152 4.3905 4.044C4.1625 3.948 4.0185 3.876 3.9465 3.84C3.8745 3.816 3.7065 3.744 3.4425 3.636C2.9625 3.444 2.6625 3.312 2.5185 3.24C2.0625 3.012 1.8345 2.712 1.8345 2.352C1.8345 1.752 2.3385 1.44 3.3585 1.44C4.0065 1.44 4.5585 1.536 5.0145 1.704C5.1945 1.776 5.3265 1.716 5.3985 1.536L5.6745 0.792C5.7225 0.648 5.6625 0.528 5.4945 0.432C4.8825 0.156 4.1145 0.0119998 3.2025 0.0119998C1.1625 0.0119998 0.1545 0.78 0.1545 2.316C0.1545 2.64 0.2025 2.928 0.2985 3.18C0.3945 3.444 0.5145 3.648 0.6465 3.816C0.7785 3.984 0.9705 4.14 1.2225 4.296C1.4745 4.452 1.6905 4.572 1.8825 4.644C2.0625 4.728 2.3145 4.824 2.6505 4.944C2.9025 5.04 3.0825 5.112 3.1905 5.16C3.2985 5.208 3.4425 5.268 3.6345 5.364C3.8145 5.46 3.9465 5.544 4.0185 5.616C4.0905 5.688 4.1625 5.784 4.2345 5.904C4.3065 6.024 4.3425 6.144 4.3425 6.276C4.3425 6.612 4.1745 6.864 3.8625 7.032C3.5505 7.2 3.1185 7.284 2.5785 7.284C1.8825 7.284 1.2465 7.164 0.6705 6.924C0.4905 6.852 0.3705 6.912 0.3105 7.104L0.0225 7.872C-0.0375 8.028 0.0225 8.148 0.2025 8.232C0.8265 8.544 1.6905 8.7 2.8065 8.7C3.7785 8.7 4.5585 8.508 5.1465 8.1C5.7225 7.704 6.0225 7.104 6.0225 6.3Z" fill="#264686"/>
<path d="M10.7874 0C9.58744 0 8.66344 0.372 8.01544 1.104C7.36744 1.848 7.04344 2.928 7.04344 4.368C7.04344 5.808 7.36744 6.888 8.01544 7.62C8.66344 8.364 9.57544 8.724 10.7754 8.724C11.9754 8.724 12.8994 8.364 13.5474 7.632C14.1954 6.9 14.5314 5.808 14.5314 4.368C14.5314 2.928 14.1954 1.848 13.5474 1.104C12.8994 0.372 11.9754 0 10.7874 0ZM10.7874 7.26C9.41944 7.26 8.74744 6.3 8.74744 4.368C8.74744 2.436 9.41944 1.464 10.7874 1.464C12.1314 1.464 12.8154 2.436 12.8154 4.368C12.8154 6.3 12.1314 7.26 10.7874 7.26Z" fill="#264686"/>
<path d="M21.5147 6.3C21.5147 6.096 21.4907 5.904 21.4667 5.736C21.4307 5.568 21.3707 5.4 21.2867 5.256C21.1907 5.112 21.1187 4.98 21.0587 4.872C20.9867 4.776 20.8787 4.668 20.7107 4.548C20.5427 4.428 20.4107 4.344 20.3387 4.284C20.2667 4.236 20.1107 4.152 19.8827 4.044C19.6547 3.948 19.5107 3.876 19.4387 3.84C19.3667 3.816 19.1987 3.744 18.9347 3.636C18.4547 3.444 18.1547 3.312 18.0107 3.24C17.5547 3.012 17.3267 2.712 17.3267 2.352C17.3267 1.752 17.8307 1.44 18.8507 1.44C19.4987 1.44 20.0507 1.536 20.5067 1.704C20.6867 1.776 20.8187 1.716 20.8907 1.536L21.1667 0.792C21.2147 0.648 21.1547 0.528 20.9867 0.432C20.3747 0.156 19.6067 0.0119998 18.6947 0.0119998C16.6547 0.0119998 15.6467 0.78 15.6467 2.316C15.6467 2.64 15.6947 2.928 15.7907 3.18C15.8867 3.444 16.0067 3.648 16.1387 3.816C16.2707 3.984 16.4627 4.14 16.7147 4.296C16.9667 4.452 17.1827 4.572 17.3747 4.644C17.5547 4.728 17.8067 4.824 18.1427 4.944C18.3947 5.04 18.5747 5.112 18.6827 5.16C18.7907 5.208 18.9347 5.268 19.1267 5.364C19.3067 5.46 19.4387 5.544 19.5107 5.616C19.5827 5.688 19.6547 5.784 19.7267 5.904C19.7987 6.024 19.8347 6.144 19.8347 6.276C19.8347 6.612 19.6667 6.864 19.3547 7.032C19.0427 7.2 18.6107 7.284 18.0707 7.284C17.3747 7.284 16.7387 7.164 16.1627 6.924C15.9827 6.852 15.8627 6.912 15.8027 7.104L15.5147 7.872C15.4547 8.028 15.5147 8.148 15.6947 8.232C16.3187 8.544 17.1827 8.7 18.2987 8.7C19.2707 8.7 20.0507 8.508 20.6387 8.1C21.2147 7.704 21.5147 7.104 21.5147 6.3Z" fill="#264686"/>
</svg>
