<svg width="40" height="20" viewBox="0 0 40 20" fill="none" xmlns="http://www.w3.org/2000/svg">
<path d="M19.5564 19.99L5.72696 6.03674C2.2277 9.63694 0.0492854 14.5599 0 19.99H19.5564Z" fill="#27AE60"/>
<path d="M19.8127 0C14.4308 0.0497265 9.55151 2.24764 5.98325 5.77822L19.8127 19.7315V0Z" fill="#EFE8CD"/>
<path d="M20.1774 0V19.7315L34.0069 5.77822C30.4386 2.24764 25.5692 0.0497265 20.1774 0Z" fill="#DF8630" fill-opacity="0.5"/>
<path d="M20.4436 19.99H40C39.9507 14.5599 37.7723 9.63694 34.273 6.03674L20.4436 19.99Z" fill="#E82119" fill-opacity="0.5"/>
<path d="M20.4436 19.9901H36.1755C36.0867 15.644 34.3125 11.7255 31.4835 8.85132L20.4436 19.9901Z" fill="#ED8A86"/>
<path d="M20.1774 4.02783V19.7315L31.2174 8.59273C28.3489 5.80804 24.4653 4.07756 20.1774 4.02783Z" fill="#E8BC91"/>
<path d="M8.7728 8.59273L19.8127 19.7315V4.02783C15.5249 4.07756 11.6412 5.80804 8.7728 8.59273Z" fill="#EFE8CD"/>
<path d="M3.82454 19.9901H19.5564L8.51651 8.85132C5.68753 11.7255 3.92311 15.6539 3.82454 19.9901Z" fill="#27AE60"/>
<path d="M20.966 16.3103C21.2913 17.0463 20.9463 17.9115 20.207 18.2497C19.4677 18.5878 18.6101 18.2596 18.2849 17.5236C17.9596 16.7877 18.3046 15.9225 19.0439 15.5843C19.7831 15.2462 20.6407 15.5744 20.966 16.3103Z" fill="#EBEBEB"/>
<path d="M20.6703 16.4396C20.9266 17.0164 20.6604 17.6927 20.0789 17.9612C19.4973 18.2198 18.827 17.9711 18.5707 17.3943C18.3144 16.8175 18.5806 16.1412 19.1621 15.8727C19.7437 15.6141 20.4239 15.8627 20.6703 16.4396Z" fill="white"/>
<path fill-rule="evenodd" clip-rule="evenodd" d="M12.4495 19.99C12.4495 17.2098 13.8734 14.7633 16.0169 13.3613C15.88 11.3838 15.7781 9.37208 15.7546 8.89631L15.7487 8.87811C15.7476 8.83382 15.7491 8.80704 15.7498 8.79745L15.7495 8.79102C15.7495 8.79102 16.9268 10.5719 18.0893 12.4098C18.7598 12.2167 19.4669 12.1134 20.1971 12.1134C24.4653 12.1134 27.9448 15.644 27.9448 19.99H26.1705C26.1705 19.9934 26.1705 19.9967 26.1705 20H14.2238C14.2238 19.9967 14.2238 19.9934 14.2238 19.99H12.4495Z" fill="#EDEDED"/>
</svg>
