<svg width="30" height="30" viewBox="0 0 30 30" fill="none" xmlns="http://www.w3.org/2000/svg">
<g clip-path="url(#clip0)">
<path d="M20.0615 15.8996C18.7116 13.7936 16.4124 12.5361 13.9112 12.5361C11.41 12.5361 9.11089 13.7936 7.76117 15.8996L4.50831 20.9741C3.9686 21.8159 3.71958 22.7887 3.78801 23.7864C3.85645 24.7843 4.23617 25.7135 4.88596 26.4743C5.53621 27.2345 6.39544 27.754 7.3707 27.977C8.34597 28.1999 9.34572 28.1047 10.2617 27.7021L10.323 27.6748C12.6279 26.6819 15.2616 26.6911 17.5605 27.7021C18.1536 27.9628 18.7818 28.0946 19.4158 28.0946C19.7605 28.0946 20.1073 28.0555 20.4508 27.9772C21.4261 27.7545 22.2853 27.2349 22.9358 26.4746C23.5858 25.7145 23.9658 24.785 24.0344 23.7868C24.1031 22.7887 23.8541 21.8161 23.3144 20.9739L20.0615 15.8996Z" fill="white"/>
<path d="M5.38445 15.8928C6.35217 15.5211 7.08734 14.7413 7.45446 13.6969C7.80396 12.7031 7.77535 11.5811 7.37367 10.5374C6.97175 9.49442 6.2407 8.64298 5.3151 8.13966C4.34281 7.61117 3.27462 7.52511 2.30851 7.89751C0.364847 8.64481 -0.527106 11.0467 0.320444 13.2529C0.997476 15.0089 2.57653 16.1174 4.17298 16.1174C4.58062 16.1174 4.9894 16.045 5.38445 15.8928Z" fill="white"/>
<path d="M11.6961 11.9172C14.1259 11.9172 16.1027 9.66499 16.1027 6.89667C16.1027 4.12766 14.1259 1.875 11.6961 1.875C9.26648 1.875 7.28986 4.12766 7.28986 6.89667C7.28986 9.66499 9.26648 11.9172 11.6961 11.9172Z" fill="white"/>
<path d="M19.3064 13.1506H19.3066C19.6804 13.2747 20.0617 13.334 20.4414 13.334C22.2134 13.334 23.9403 12.0442 24.5993 10.0621C24.9788 8.92112 24.9538 7.71468 24.529 6.66526C24.0845 5.56663 23.2608 4.7692 22.2093 4.4197C21.1576 4.0702 20.0203 4.216 19.0065 4.82986C18.0381 5.41625 17.2961 6.36771 16.9171 7.50869C16.1171 9.91561 17.189 12.4466 19.3064 13.1506Z" fill="white"/>
<path d="M28.5864 12.5647L28.5857 12.564C26.9101 11.3262 24.4041 11.8627 22.999 13.7606C21.5952 15.6594 21.8147 18.2121 23.4878 19.4508C24.098 19.9029 24.819 20.1189 25.5569 20.1189C26.843 20.1189 28.1811 19.4625 29.0755 18.2554C30.479 16.3566 30.2598 13.8039 28.5864 12.5647Z" fill="white"/>
</g>
<defs>
<clipPath id="clip0">
<rect width="30" height="30" fill="white"/>
</clipPath>
</defs>
</svg>
