<svg width="30" height="30" viewBox="0 0 30 30" fill="none" xmlns="http://www.w3.org/2000/svg">
<path d="M3.10348 3.62061C1.38931 3.62061 0 5.00992 0 6.72404C0 8.43815 1.38931 9.82752 3.10348 9.82752C4.8176 9.82752 6.20691 8.4382 6.20691 6.72404C6.20691 5.00987 4.8176 3.62061 3.10348 3.62061ZM3.10348 11.8964C1.38931 11.8964 0 13.2858 0 14.9999C0 16.7141 1.38931 18.1034 3.10348 18.1034C4.8176 18.1034 6.20691 16.7141 6.20691 14.9999C6.20691 13.2858 4.8176 11.8964 3.10348 11.8964ZM3.10348 20.1724C1.38931 20.1724 0 21.5616 0 23.2758C0 24.9899 1.38931 26.3792 3.10348 26.3792C4.8176 26.3792 6.20691 24.9899 6.20691 23.2758C6.20691 21.5616 4.8176 20.1724 3.10348 20.1724ZM11.3793 8.79301H27.931C29.0741 8.79301 30 7.86712 30 6.72404C30 5.58095 29.0741 4.65507 27.931 4.65507H11.3793C10.2362 4.65507 9.31034 5.58095 9.31034 6.72404C9.31034 7.86712 10.2362 8.79301 11.3793 8.79301ZM27.931 12.9309H11.3793C10.2362 12.9309 9.31034 13.8568 9.31034 14.9999C9.31034 16.143 10.2362 17.0689 11.3793 17.0689H27.931C29.0741 17.0689 30 16.143 30 14.9999C30 13.8568 29.0741 12.9309 27.931 12.9309ZM27.931 21.2068H11.3793C10.2362 21.2068 9.31034 22.1327 9.31034 23.2758C9.31034 24.4188 10.2362 25.3447 11.3793 25.3447H27.931C29.0741 25.3447 30 24.4188 30 23.2758C30 22.1327 29.0741 21.2068 27.931 21.2068Z" fill="white"/>
</svg>
