<svg width="20" height="20" viewBox="0 0 20 20" fill="none" xmlns="http://www.w3.org/2000/svg">
<path d="M3.55469 15.2734C4.8491 15.2734 5.89844 14.2241 5.89844 12.9297C5.89844 11.6353 4.8491 10.5859 3.55469 10.5859C2.26027 10.5859 1.21094 11.6353 1.21094 12.9297C1.21094 14.2241 2.26027 15.2734 3.55469 15.2734Z" fill="#4C4C4C"/>
<path d="M0 20H7.07031V18.8281C7.07031 16.8895 5.49332 15.2734 3.55469 15.2734C1.61605 15.2734 0 16.8895 0 18.8281V20Z" fill="#4C4C4C"/>
<path d="M16.4453 15.2734C17.7397 15.2734 18.7891 14.2241 18.7891 12.9297C18.7891 11.6353 17.7397 10.5859 16.4453 10.5859C15.1509 10.5859 14.1016 11.6353 14.1016 12.9297C14.1016 14.2241 15.1509 15.2734 16.4453 15.2734Z" fill="#4C4C4C"/>
<path d="M10 11.7578C12.9079 11.7578 15.2734 9.3923 15.2734 6.48438V5.3125C15.2734 2.40457 12.9079 0 10 0C7.09207 0 4.72656 2.40457 4.72656 5.3125V6.48438C4.72656 9.3923 7.09207 11.7578 10 11.7578ZM9.41406 9.41398V8.24211H10.5859V9.41398H9.41406ZM9.41406 7.05656V6.45688C9.41406 5.73188 9.76254 5.04297 10.3468 4.61266C10.4984 4.50113 10.5859 4.32887 10.5859 4.14062C10.5859 3.81734 10.3233 3.55469 10 3.55469C9.67672 3.55469 9.41406 3.81734 9.41406 4.14062V4.72656H8.24219V4.14062C8.24219 3.17133 9.0307 2.38281 10 2.38281C10.9693 2.38281 11.7578 3.17133 11.7578 4.14062C11.7578 4.6968 11.49 5.22609 11.042 5.55625C10.7564 5.76684 10.5859 6.10328 10.5859 6.45691V7.0566H9.41406V7.05656Z" fill="#4C4C4C"/>
<path d="M20 18.8281C20 16.8895 18.3839 15.2734 16.4453 15.2734C14.5067 15.2734 12.9297 16.8895 12.9297 18.8281V20H20V18.8281Z" fill="#4C4C4C"/>
</svg>
