<svg width="20" height="20" viewBox="0 0 20 20" fill="none" xmlns="http://www.w3.org/2000/svg">
<g clip-path="url(#clip0)">
<path d="M7.50001 9.16671C9.8012 9.16671 11.6667 7.30123 11.6667 5.00004C11.6667 2.69885 9.8012 0.833374 7.50001 0.833374C5.19882 0.833374 3.33334 2.69885 3.33334 5.00004C3.33334 7.30123 5.19882 9.16671 7.50001 9.16671Z" fill="#4C4C4C"/>
<path d="M11.0417 10.8333H3.95833C1.77583 10.8333 0 12.6091 0 14.7916V17.7083C0 18.0533 0.28 18.3333 0.625 18.3333H14.375C14.72 18.3333 15 18.0533 15 17.7083V14.7916C15 12.6091 13.2242 10.8333 11.0417 10.8333Z" fill="#4C4C4C"/>
<path d="M19.8008 7.87501L16.8842 5.16669C16.7667 5.05752 16.6133 5.00085 16.4592 5.00085C16.0458 5.00085 15.8333 5.35252 15.8333 5.62502V7.50002H12.5C12.0392 7.50002 11.6667 7.87335 11.6667 8.33335C11.6667 8.79335 12.0392 9.16668 12.5 9.16668H15.8333V11.0417C15.8333 11.3883 16.115 11.6667 16.4583 11.6667C16.6133 11.6667 16.7658 11.6092 16.8842 11.5L19.8008 8.79168C19.9275 8.67335 20 8.50668 20 8.33335C20 8.16001 19.9275 7.99335 19.8008 7.87501V7.87501Z" fill="#4C4C4C"/>
</g>
<defs>
<clipPath id="clip0">
<rect width="20" height="20" fill="white"/>
</clipPath>
</defs>
</svg>
