<svg width="20" height="20" viewBox="0 0 20 20" fill="none" xmlns="http://www.w3.org/2000/svg">
<path d="M0 9.41406H2.38281V10.5859H0V9.41406Z" fill="#F5A42B"/>
<path d="M17.6172 9.41406H20V10.5859H17.6172V9.41406Z" fill="#F5A42B"/>
<path d="M14.9718 4.19971L16.6289 2.5426L17.4574 3.37115L15.8003 5.02826L14.9718 4.19971Z" fill="#F5A42B"/>
<path d="M4.19952 5.02814L2.54242 3.37103L3.37097 2.54248L5.02808 4.19958L4.19952 5.02814Z" fill="#F5A42B"/>
<path d="M9.41406 0H10.5859V2.38281H9.41406V0Z" fill="#F5A42B"/>
<path d="M4.72656 17.6562C4.07928 17.6562 3.55469 18.1808 3.55469 18.8281V20H16.4453V18.8281C16.4453 18.1808 15.9207 17.6562 15.2734 17.6562H4.72656Z" fill="#F5A42B"/>
<path d="M4.72656 10V16.4844H15.2734V10C15.2734 7.09213 12.9079 4.72656 10 4.72656C7.09213 4.72656 4.72656 7.09213 4.72656 10ZM9.41406 8.24219H10.5859V11.7578H9.41406V8.24219ZM9.41406 12.9297H10.5859V14.1016H9.41406V12.9297Z" fill="#F5A42B"/>
</svg>
